<svg xmlns="http://www.w3.org/2000/svg" width="1000" height="500"><style>.filing-arm{animation:filingFrames linear 3s;animation-iteration-count:infinite;transform-origin:40px 305px;-webkit-animation:filingFrames linear 3s;-webkit-animation-iteration-count:infinite;-webkit-transform-origin:40px 305px;-moz-animation:filingFrames linear 3s;-moz-animation-iteration-count:infinite;-moz-transform-origin:40px 305px;-o-animation:filingFrames linear 3s;-o-animation-iteration-count:infinite1;-o-transform-origin:40px 305px;-ms-animation:filingFrames linear 3s;-ms-animation-iteration-count:infinite;-ms-transform-origin:40px 305px}@keyframes filingFrames{0%{transform:rotate(0deg)}50%{transform:rotate(-10deg)}100%{transform:rotate(0deg)}}@-moz-keyframes filingFrames{0%{-moz-transform:rotate(0deg)}50%{-moz-transform:rotate(-10deg)}100%{-moz-transform:rotate(0deg)}}@-webkit-keyframes filingFrames{0%{-webkit-transform:rotate(0deg)}50%{-webkit-transform:rotate(-10deg)}100%{-webkit-transform:rotate(0deg)}}@-o-keyframes filingFrames{0%{-o-transform:rotate(0deg)}50%{-o-transform:rotate(-10deg)}100%{-o-transform:rotate(0deg)}}@-ms-keyframes filingFrames{0%{-ms-transform:rotate(0deg)}50%{-ms-transform:rotate(-10deg)}100%{-ms-transform:rotate(0deg)}}</style><defs><clipPath id="e"><path d="M418.8 106.5h2.7v-6.8h-2.7v6.8z"/></clipPath><clipPath id="d"><path d="M371 95.8h53.5v-16H371v16z"/></clipPath><clipPath id="c"><path d="M373.2 141.5h.6V99.7h-.6v41.8z"/></clipPath><clipPath id="b"><path d="M373.7 140.8h47.8v-41h-47.8v41z"/></clipPath><clipPath id="a"><path d="M244 54.5h184V35H244v19.5z"/></clipPath><clipPath id="F"><path d="M426.2 360.7h3v-1.4h-3v1.4z"/></clipPath><clipPath id="E"><path d="M427 376.8h1.6v-7H427v7z"/></clipPath><clipPath id="D"><path d="M418 309h3.5v-3.6H418v3.6z"/></clipPath><clipPath id="C"><path d="M414.3 313.7h40v-56h-40v56z"/></clipPath><clipPath id="B"><path d="M441 345h6.7v-28H441v28z"/></clipPath><clipPath id="A"><path d="M434.3 345.2h6.6v-28h-6.7v28z"/></clipPath><clipPath id="z"><path d="M447.7 345.3h6.6v-28h-6.6v28z"/></clipPath><clipPath id="y"><path d="M434.3 382.7h6.3v-26.5h-6.3v26.5z"/></clipPath><clipPath id="x"><path d="M441.3 382.7h6.2v-26.5h-6.2v26.5z"/></clipPath><clipPath id="w"><path d="M448 382.7h6.3v-26.5H448v26.5z"/></clipPath><clipPath id="v"><path d="M470.5 322h35v-5.3h-35v5.3z"/></clipPath><clipPath id="u"><path d="M470.5 357h35V352h-35v5.3z"/></clipPath><clipPath id="t"><path d="M287.7 341.7h7.3v-6.5h-7.3v6.5z"/></clipPath><clipPath id="s"><path d="M283.6 299h5.8v-40h-5.8v40z"/></clipPath><clipPath id="r"><path d="M285.2 296h9v-43h-9v43z"/></clipPath><clipPath id="q"><path d="M281.8 321.3H301v-5.8h-19.2v5.8z"/></clipPath><clipPath id="p"><path d="M288.8 326.7h5v-3h-5v3z"/></clipPath><clipPath id="o"><path d="M300.7 327.8h6.4v-16.4h-6.3v16.4z"/></clipPath><clipPath id="n"><path d="M275.6 327.8h6.5v-16.4h-6.4v16.4z"/></clipPath><clipPath id="m"><path d="M305 305.7h2.2v-3H305v3z"/></clipPath><clipPath id="l"><path d="M273.6 305h2.3V303h-2.4v2.3z"/></clipPath><clipPath id="k"><path d="M351 305.7h2.3v-3H351v3z"/></clipPath><clipPath id="j"><path d="M319.7 305h2.3V303h-2.3v2.3z"/></clipPath><clipPath id="i"><path d="M286.7 418.3H352V338h-65.3v80.3z"/></clipPath><clipPath id="h"><path d="M279.5 430.4H333v-67h-53.5v67z"/></clipPath><clipPath id="g"><path d="M279.5 430.4H352V338h-72.5v92.4z"/></clipPath><clipPath id="f"><path d="M277 433h80.5V332.4H277V433z"/></clipPath></defs><g transform="translate(640.62818,-155.84434) matrix(1.6666667,0,0,1.6666633,93.752075,-270.56105)"><path fill="#0095eb" d="M159.4 555.8h-600v-300h600v300z"/><ellipse cx="-422" cy="381.3" fill="#fff" ry="16.3" rx="6.3"/><path fill="#b395dd" d="M159.4 481.8h-600v74h600v-74z"/><path fill="#fff" d="M-440.6 476.8h600v5h-600z"/><g fill="#fff" fill-opacity=".4" clip-path="url(#a)" transform="matrix(0.97453332,0,0,-2.4942967,-302.68525,628.76541)"><path d="M428 50.5C428 42 386.8 35 336 35c-51 0-92 7-92 15.5 0 6 40.6 3.6 91.4 3.6 51 0 92.6 2 92.6-3.5"/></g><g clip-path="url(#b)" transform="matrix(2.8426384,0,0,-2.8426384,-1044.4707,655.98977)"><path fill="#e4edeb" d="M421.5 140.8v-41h-14v11.7c0 5.4-4.5 9.8-10.2 9.8-5.6 0-10-4.4-10-9.8V99.7h-13.6v41h47.8z"/></g><path fill="#515151" d="M8 370.6v11h151.4v-11H8z"/><path fill="#ff7f2a" d="M9.8 381.7v117.8h149.6V381.7H9.8z"/><path fill="#9ba4ab" d="M153.8 255.8v114.8h5.6V255.8h-5.6z"/><path fill="#e5e0e4" d="M158.5 255.8v114.8h1V255.8h-1z"/><path fill="#9ba4ab" d="M11.5 255.8v114.8H18V255.8h-6.5z"/><g clip-path="url(#c)" transform="matrix(2.8426384,0,0,-2.8426384,-1044.4707,657.93839)"><path fill="#e5e0e4" d="M373.8 99.7h-.6v41.8h.6V99.7z"/></g><g transform="matrix(2.8426384,0,0,-2.8426384,-1047.456,653.9818)" clip-path="url(#d)"><path fill="#e5e0e4" d="M371 95.8h53.5v-16L371 89.4v6.4z"/></g><path fill="#e4edeb" d="M153.8 255.8L89 311.6c-1.3-.2-2.6-.3-4-.3-16 0-29 12.4-29 27.7v1l-38 32.6V255.8h135.8z"/><g class="filing-arm"><path fill="#b5ccf9" d="M37 356c-.2-5.6 11.2-5 16.8-4.5 5.5.5 21.5 3.8 21.5 3.8l-.3 6s-14.6 2.7-30 2c-1.6 0-7.8-1.8-8-7.4"/><path fill="#ffa47c" d="M69.8 355.6s7-1.8 8.3-1.7c1.5 0 6.7 1.8 6.7 1.8s-2 1.6-2 2.8v4.5s-4.6.6-6.8 0c-2.2-.4-4.2-1.4-4.2-1.4l-2-6z"/><path fill="#ffa47c" d="M85 356.8c.2-.5-.2-1-.8-1L80 355c-.6 0-1 .2-1.2.8 0 .5.3 1 .8 1.2l4.3.7c.4 0 1-.3 1-1"/><path fill="#ccdbf6" d="M74.8 362.8l-5.4-.5.3-8h5.6l-.5 8.5z"/><path fill="#b5ccf9" d="M23.5 324.5c-4.7 2-4.5 6.4-2.4 11C23.4 340 39.4 361 41 361.2c1.6.4 8-3.2 8-5.6-.2-2.3-11-22-13.5-25.5-2.5-3.3-6.2-7.7-11.8-5.5"/><path fill="#dae6e4" d="M68.6 363l-3.2 10 34-14.7 3.2-10-34 14.6z"/><path fill="#2089a9" d="M71 369.2h.3l.6-.4.7-.5 1-.7.4-.7c.2-.3.2-.5 0-.6h-1.4l-.7.3-1.7 1c-.5.2-1 .5-1.2.8 0 .2 0 .3-.2.4v.6h1.6l.5-.3m0 0c-.2 0-.4 0-.7.2-.4 0-1 .3-1.5.2-.2 0-.3-.2-.3-.3v-.2-.2l.4-.4c.2-.3.6-.7 1.2-1 .5-.4 1-.8 1.7-1l.8-.4c.3 0 .6 0 .8-.2h1v.7c0 .3-.4.6-.7 1-.8.4-1.6 1-2 1l-.7.4c0 .2-.2.2-.2.2"/><path fill="#2089a9" d="M73.7 367c0-.3 0-.4-.5-.4-.2 0-.5 0-.8.2-.4 0-.8.3-1.2.5l-1 .7c-.4.2-.6.5-.7.7v.4c0 .2.3.2.6.2l1.2-.3c.3-.3.7-.5 1-.6l1.2-1s.2 0 .2-.2m0 0l-.2.2-1.2 1-1 .5-1.2.3h-.7c-.2-.2-.2-.3 0-.5 0-.2 0-.3.3-.4l.4-.4 1.2-.8 1.2-.5h.8c.5 0 .6 0 .5.2"/><path fill="#cee0ff" d="M94.5 353.7l.2-.6 1.3-.4v.5l-1.5.7zM93 354.4v-.6l1.4-.5-.2.5-1.3.6zM91.3 355l.2-.5 1.3-.6-.2.5-1.3.6zM89.7 355.8l.2-.6 1.2-.6-.2.6-1.3.6zM88 356.5l.3-.6 1.3-.7-.2.6-1.3.5z"/><path fill="#e50000" d="M95 353.2l.7-.6-1 .6c.4.2.7.2 1 0H95M93.4 354l.7-.6-.8.6h1-.8M91.7 354.6l.7-.5-1 .7H91.8M90 355.3l.8-.5-1 .6H90M88.4 356l.7-.5-.8.6v.2h1l-.8-.2"/><path fill="#303030" d="M93.7 359.7l1.7-5.6h.3l-1.8 5.6h-.3zM93 360l1.8-5.6h.3l-1.7 5.5H93zM93.7 356.4l.5-1.8h.3l-.6 1.7h-.3zM91.6 360.6l1.7-5.6h.3l-1.8 5.5h-.2zM92 358l.7-2.7h.3l-1 2.6zM91.8 356.5l.3-1h.4l-.3 1H92zM89.6 361.5l1.7-5.6.3-.2-1.8 5.6h-.2zM89 361.8l1.7-5.7h.3l-1.8 5.7H89zM89.5 358.2l.6-1.8h.3l-.5 1.7-.3.2zM87.5 362.4l1.7-5.6h.3l-1.8 5.5h-.2zM87.8 359.8l.8-2.8h.3l-1 2.7h-.2zM87.7 358.3l.3-1h.2l-.3 1h-.3zM84.2 364l2.3-7.4h.2l-2.2 7.2h-.3zM83.6 364.2L86 357v-.2l-2 7.3-.4.2zM84.3 360l1-3h.2l-1 3h-.2zM82 364.8l2.4-7.3h.2l-2.2 7.2H82zM82.4 362.3l1.4-4.5h.2l-1.4 4.4h-.2zM82.7 359.6l.5-1.6h.2l-.5 1.5h-.3zM80 365.7l2.4-7.3h.2l-2.2 7.2H80zM79.5 366l2.3-7.3.2-.2-2.3 7.3-.2.2zM79 366.2L81 359l.2-.2L79 366v.2zM78 366.6l2.3-7.3h.2l-2.2 7.2H78zM78.3 364l1.4-4.4.2-.2-1.5 4.6h-.2zM78.6 361.4l.5-1.6h.3l-.5 1.5h-.2zM76 365l1.5-4.5h.3l-1.4 4.4H76zM76.4 362.3l.5-1.6-.4 1.5h-.2zM71.6 367.6l.5-1.6h.4l-.5 1.5h-.4zM70.7 368.5l.7-2.2h.2l-.6 2-.3.2z"/><path fill="#ffa47c" d="M81 359c.8 1.4 0 2-.5 2.3-.4.3-4-3.4-4.8-5-1-1.3.7-.5 1.2-.7.4-.2 3 1.8 4 3.3z"/></g><g fill-opacity=".1" clip-path="url(#e)" transform="matrix(2.8426384,0,0,-2.8426384,-1044.4707,653.9818)"><path d="M418.8 106.5l2.7-4v-2.8h-2.7v6.8z"/></g><path fill="#fff" d="M120.6 370.6H146v-19.4h-25.4v19.4z"/><path fill="#515151" d="M145 352.4c.2 0 .3 0 .3-.2v-1.8c0-.2 0-.3-.2-.3l-.2.4v1.8s0 .2.3.2M143.5 352.4s.2 0 .2-.2v-1.8c0-.2 0-.3-.2-.3 0 0-.3.2-.3.4v1.8l.3.2M142 352.4v-2-.3c-.2 0-.3.2-.3.4v1.8s0 .2.2.2M140.3 352.4c.2 0 .3 0 .3-.2v-1.8c0-.2 0-.3-.3-.3l-.2.4v1.8l.3.2M138.7 352.4c.2 0 .3 0 .3-.2v-1.8c0-.2 0-.3-.3-.3l-.2.4v1.8s0 .2.2.2M137.2 352.4s.2 0 .2-.2v-1.8c0-.2 0-.3-.2-.3s-.3.2-.3.4v1.8s0 .2.2.2M135.6 352.4s.2 0 .2-.2v-1.8c0-.2 0-.3-.2-.3s-.3.2-.3.4v1.8s0 .2.3.2M134 352.4s.2 0 .2-.2v-1.8c0-.2 0-.3-.2-.3l-.2.4v1.8s0 .2.2.2M132.4 352.4s.3 0 .3-.2v-1.8c0-.2-.2-.3-.3-.3l-.2.4v1.8s0 .2.2.2M130.8 352.4c.2 0 .3 0 .3-.2v-1.8c0-.2 0-.3-.2-.3l-.2.4v1.8s0 .2.2.2M129.2 352.4c.2 0 .3 0 .3-.2v-1.8c0-.2 0-.3-.3-.3l-.2.4v1.8s0 .2.2.2M127.7 352.4s.2 0 .2-.2v-1.8c0-.2-.2-.3-.3-.3-.2 0-.3.2-.3.4v1.8s0 .2.3.2M126 352.4c.2 0 .3 0 .3-.2v-1.8c0-.2 0-.3-.2-.3l-.2.4v1.8s0 .2.3.2M124.5 352.4s.2 0 .2-.2v-1.8c0-.2 0-.3-.2-.3l-.2.4v1.8s0 .2.2.2M123 352.4s.2 0 .2-.2v-1.8c0-.2 0-.3-.3-.3-.2 0-.3.2-.3.4v1.8s0 .2.2.2M121.3 352.4c.2 0 .3 0 .3-.2v-1.8c0-.2 0-.3-.3-.3l-.2.4v1.8l.3.2M142 356.8h2v-2.2h-2v2.2zM139 356.8h2v-2.2h-2v2.2zM136 356.8h1.8v-2.2h-2v2.2zM132.8 356.8h2v-2.2h-2v2.2zM129.7 356.8h2v-2.2h-2v2.2zM126.6 356.8h2v-2.2h-2v2.2z"/><path fill="#6d0000" d="M123.4 356.8h2v-2.2h-2v2.2z"/><path fill="#515151" d="M142 360.6h2v-2h-2v2zM139 360.6h2v-2h-2v2zM136 360.6h1.8v-2h-2v2zM132.8 360.6h2v-2h-2v2zM129.7 360.6h2v-2h-2v2zM126.6 360.6h2v-2h-2v2z"/><path fill="#6d0000" d="M123.4 360.6h2v-2h-2v2z"/><path fill="#515151" d="M142 364.4h2v-2h-2v2zM139 364.4h2v-2h-2v2zM136 364.4h1.8v-2h-2v2zM132.8 364.4h2v-2h-2v2zM129.7 364.4h2v-2h-2v2zM126.6 364.4h2v-2h-2v2z"/><path fill="#6d0000" d="M123.4 364.4h2v-2h-2v2z"/><path fill="#515151" d="M142 368.2h2v-2h-2v2zM139 368.2h2v-2h-2v2zM136 368.2h1.8v-2h-2v2zM132.8 368.2h2v-2h-2v2zM129.7 368.2h2v-2h-2v2zM126.6 368.2h2v-2h-2v2z"/><path fill="#6d0000" d="M123.4 368.2h2v-2h-2v2z"/><path fill="#ffbd95" d="M9.5 301.6S8.2 316.3 7.3 317c-2.7 2-12.5 3.5-14.5 7.3-2.4 4.5 8.7 26 10 33 1 7-2.6 17.7-4 24.5-1.3 6.8 19.7 16 20.5 16 .8 0 8-6 9.4-8.2 1.4-2.2 1-19.7 1-24.2.3-4.4 2-20 2.3-21 1.7-6.7.2-12.2 0-13.6-.2-1.5 0-4-.7-5-1.4-1.8-9.3-4.6-9.3-5.5l-.6-13.7-12-5z"/><path fill="#ccdbf6" d="M7.3 317l12.6 8.3 2-5s8.3 3.8 9.3 5.6c1 1.8 1.4 5.8 1.6 7.3.2 1.5 0 8.3-.7 14.2-.5 3.5-.6 8-1.4 14-.8 5-1 17.5-1 17.5s-4.7 0-12-.7c-8.7-1-18.4-1.3-18.8-1.6-1.6-1.5 2.4-16 2-17.5 0-1.5-9.5-27.6-9.6-31 0-3.4 2-5.5 4.5-6.7L7.4 317"/><path fill="#b5ccf9" d="M-2.8 322.3s5.3 0 7.5 4c6 10.7 2 23.5 9.6 26 12 3.6 16.7 7.3 16.5 9.7-1 10.5-.7 16-.7 16l-30-1c-3.6.6 1.3-18 0-21.6-1-3.6-6.4-22-6.4-24.7 0-2.7 3.6-8.4 3.6-8.4"/><path fill="#ffa47c" d="M21.6 312L8.8 307l-.7 7.7 4 2.7 9.6-5z"/><path fill="#ffbd95" d="M27.5 289.5c-2.7-3.5-11.7-8-17.5-2.6-5.8 5.3-5 11.8-3 16 1.3 3.5 3 5.5 6.4 8 .7.4 7.5 3 9 2.7 1-.2 3-7 3.3-7 .3 0 1 0 1.2-.7.2-.8.2-6 .5-6.5s3-6 0-10"/><path fill="#8d3b26" d="M29 293s-5-4-12.6.8c-1.7 1 0 7-.5 7.5-.6.5-4.6-5-4.5-4.4.7 6.7-2 10-2.6 9.8-2-.2-5.7-10.3-1.7-17 4-7 12-6.2 14-5.4 1.7.7 7.3 2.2 7.6 8.6"/><path fill="#ffbd95" d="M14.3 299c.3 2 0 5-1 5-1.3.2-2.4-1.5-2.7-3.7-.2-2 .5-4 1.7-4 1.2-.2 1.8.5 2 2.6"/><path fill="#191919" d="M19.2 503.5h-8.4V502h8.4v1.5z"/><path fill="#0f0d0d" d="M11.2 491c-1 1.5-2 4.4-2 5.8 0 1.7 1 5 2 5 3 0 7 .3 10.2.7 3.2.4 4.4 2.3 12.8 2.3 2.4 0 6.8-.2 6.7-1.2-.2-1-8-2.7-10.6-5-6.5-6-10.7-7.4-10.7-7.4s-8.3-.6-8.5-.3"/><path fill="#00233f" d="M4.5 384.8l-1 8.2c-.5 4.8 4.2 20.4 5.8 32.6 1.7 12.2 2.7 14.7 2.3 17.6-.4 3-4 14.5-3.6 22.3l2 28s2.3 1.2 6.4 1.6c4 .4 6.7-3 6.7-3s3.4-45.4 4-50.2c.2-3 2.7-24.5 3.5-42 .3-5.6-.4-18.6-.4-21 0-1.5-25.5 6-25.5 6"/><path fill="#191919" d="M-.6 504.3l-8.4-.5v-1.6l8.5.5v1.6z"/><path fill="#191919" d="M-7.8 491c-1.2 1.4-2.2 4.4-2.4 5.8-.2 1.7.6 5.4 1.6 5.4 3.2.2 7 .6 10.2 1.2 3.2.7 4.3 2.7 12.6 3.2 2.4.2 7 .3 6.8-.8 0-1-7.8-3.3-10.2-6-6-6.4-10.2-8-10.2-8s-8.2-1.2-8.4-1"/><path fill="#002d56" d="M-.6 376.8S-3.4 384-3.3 390c0 5 1.4 14 3 26.2 1.8 12.2 2 23.5 1.5 26.4-.4 3-6.6 15-7.6 22.8-1 8.7-3.8 25.8-3.8 25.8s2.4 1.3 6.4 1.7l9.4.7s12-45.5 13.7-50c2.8-7.2 3.3-29.7 5.3-45 .8-6.2 4.6-19.8 4.6-19.8l-29.8-2.2z"/><path fill="#b8d1ff" d="M19.4 322.2l.5 3-6.7-4.3 6 1.2zM20 325.3l1-3.8 1.7 1.4-2.8 2.3z"/><path fill="#e5ecff" d="M5.5 317.7l2.6-3.2 11.4 7.7-2 4-12-8.5zM21 321.5l2.8 3.3.5-3.4L22 319l-1 2.5z"/><path fill="#ccdbf6" d="M-4.3 322.4c-5 .2-6.5 4.4-6 9.4s8.2 30.2 9.6 31c1.3 1 8.6-.2 9.3-2.5.6-2.2-2.7-24.6-3.8-28.6-1-4-3-9.5-9-9.3"/><path fill="#3b1b1d" d="M-.8 376.7l17.2 1 13.7.4.2 3.5s-8.8.2-17.8-.3c-9-.6-14-1.3-14-1.3l.8-3.3z"/><path fill="#722c1d" d="M27.2 382H29c.6 0 1-.5 1-1v-2c0-.5-.4-1-1-1h-1.8c-.6 0-1 .5-1 1v2c0 .5.4 1 1 1"/><path fill="#ffa47c" d="M36.4 365.6s6.5 0 7.3.2c1 .4 10 4.6 10 5.2 0 .7-6-.4-8.3-.2-2.4.2-4.2 2-7 .7-2.8-1.4-7-3-7-3l.6-4.4 4.4 1.6z"/><path fill="#ccdbf6" d="M-.7 361c-1.7 5.4 9.5 8 15 9 5.6 1 22 2.2 22 2.2l1.5-6s-13.5-6.6-28.7-10c-1.4-.5-8-.5-9.7 5"/><path fill="#e5ecff" d="M36.2 373.4l-5.4-1.4 2-8.3 5.5 1.4-2 8.4z"/><g clip-path="url(#f)" transform="translate(-60.104076,-1.0101525) matrix(-1.25,0,0,-1.25,245.26446,832.58223)"><path fill="#e6e6e6" d="M357.5 332.4H277V433h80.5V332.4z"/></g><path fill="#fff" d="M-260 414.2H-159V288.6H-260v125.6z"/><path fill="#b6e9f2" d="M-255 409.2h90.8V293.6H-255v115.6z"/><path fill="#9bd2db" d="M-194 409.2h29.8V305H-194v104.2zM-218.3 409.2h24.3v-49.5h-24.3v49.5z"/><path fill="#9bd2db" d="M-211.8 354.8h12.4v5h-12.4v-5zM-255 325.8l26 9V409h-26v-83.4z"/><path fill="#9bd2db" d="M-242 311.2h2.7V338h-2.8v-26.8z"/><path fill="#9bd2db" d="M-247.6 328.3h11.7v6.4h-11.6v-6.4z"/><g clip-path="url(#g)" opacity=".3" transform="translate(-60.104076,-1.0101525) matrix(-1.25,0,0,-1.25,245.26446,832.58223)"><path fill="#fff" d="M352 430.4v-3.2L279.7 338v14l62.4 78.4h10z"/></g><g clip-path="url(#h)" opacity=".3" transform="translate(-60.104076,-1.0101525) matrix(-1.25,0,0,-1.25,245.26446,832.58223)"><path fill="#fff" d="M333 430.4l-53.5-67v26l32.6 41h21z"/></g><g clip-path="url(#i)" opacity=".3" transform="translate(-60.104076,-1.0101525) matrix(-1.25,0,0,-1.25,245.26446,832.58223)"><path fill="#fff" d="M352 418.3v-5.8L291.5 338h-4.7l65.4 80.3z"/></g><path fill="#8f8c88" d="M-166 347h-1v-54h1v54zM-251.2 347h-1v-54h1v54z"/><path fill="#b0aca8" d="M-257.7 296.4h97.3V291h-97.3v5.4z"/><path fill="#ccc" d="M-257.7 300.4h97.3v-1.8h-97.3v1.8zM-257.7 304.2h97.3v-1.8h-97.3v1.8zM-257.7 308h97.3v-1.7h-97.3v1.7zM-257.7 312h97.3v-2h-97.3v2zM-257.7 315.7h97.3V314h-97.3v1.7zM-257.7 319.5h97.3v-1.7h-97.3v1.7zM-257.7 323.3h97.3v-1.7h-97.3v1.7zM-257.7 327.2h97.3v-1.8h-97.3v1.8zM-257.7 331h97.3v-1.8h-97.3v1.8zM-257.7 334.8h97.3V333h-97.3v1.8zM-257.7 338.6h97.3V337h-97.3v1.6zM-257.7 342.5h97.3v-1.8h-97.3v1.8zM-257.7 345.2h97.3v-1.7h-97.3v1.7zM-257.7 348h97.3v-1.8h-97.3v1.8z"/><path fill="#666" d="M-195.7 494.4h4V447c0-1-.6-1.6-1.5-1.6h-1c-.8 0-1.5.7-1.5 1.6v47.4z"/><path fill="#ccc" d="M-194.3 445.4h.8c.7 0 1.3.7 1.3 1.6v47.4h-.7V447c0-1-.5-1.6-1.3-1.6"/><path fill="#3d3d3d" d="M-195.7 493h4v1.4h-4V493z"/><path fill="#666" d="M-138.3 494.4h4V447c0-1-.7-1.6-1.6-1.6h-.8c-.8 0-1.5.7-1.5 1.6v47.4z"/><path fill="#ccc" d="M-137 445.4h.8c.7 0 1.3.7 1.3 1.6v47.4h-.6V447c0-1-.6-1.6-1.3-1.6"/><path fill="#3d3d3d" d="M-138.3 493h4v1.4h-4V493z"/><path fill="#666" d="M-189.4 446.7h3.2V435h-3.2v11.7z"/><path fill="#ccc" d="M-187.8 446.7h1V435h-1v11.7z"/><path fill="#666" d="M-143.8 447.5h3.3v-11.7h-3.3v11.7z"/><path fill="#ccc" d="M-142 447.5h1v-11.7h-1v11.7z"/><path fill="#666" d="M-184.4 462.5c13 2 26 2 39 0 5-.7 9-5.2 9-10.5v-.2c0-4.2-3.7-7.4-8-7-13.7 1.3-27.5 1.3-41.3 0-4-.4-7.7 3-7.7 7v.2c0 5.3 3.8 9.8 9 10.5"/><path fill="#4d4d4d" d="M-184.4 457.3c13 2 26 2 39 0 4-.7 7.4-3.8 8.5-7.8.3.8.5 1.5.5 2.3v.2c0 5.3-4 9.8-9 10.5-13 2-26 2-39 0-5-.8-9-5.2-9-10.5v-.2c0-.8.2-1.5.4-2.2 1 4 4.4 7 8.6 7.7"/><g clip-path="url(#j)" transform="matrix(1.1648569,0,0,1.1648569,39.31682,-89.705925) matrix(-1.25,0,0,-1.25,245.26446,832.58223)"><path fill="#ccc" d="M322 305V303l-1.2.3-.7.4-.3.3v1.4h2.3z"/></g><g clip-path="url(#k)" transform="matrix(1.1648569,0,0,1.1648569,39.31682,-89.705925) matrix(-1.25,0,0,-1.25,245.26446,832.58223)"><path fill="#ccc" d="M353.3 305.7v-2l-1-.5c-.3 0-.6-.2-.8-.3-.2 0-.3 0-.4-.2v3h2.3z"/></g><path fill="#4d4d4d" d="M-179 404.3h28.2c6 0 10.8 4.5 11.2 10.4l1 17.3c.3 2.4-1.2 4.5-3.4 5.2-15 4.6-30.2 4.7-46 0-2-.7-3.6-2.8-3.5-5.2l1.2-17.3c.4-6 5.3-10.4 11.2-10.4"/><path fill="#666" d="M-149.5 408h-31c-3.8 0-7.2 2-9.5 4.7 1.3-5 5.7-8.4 11-8.4h28.2c5.2 0 9.6 3.5 10.8 8.4-2.2-2.8-5.7-4.6-9.5-4.6M-128.6 494.4h4V447c0-1-.6-1.6-1.5-1.6h-1c-1 0-1.6.7-1.6 1.6v47.4z"/><path fill="#ccc" d="M-127.2 445.4h.8c.7 0 1.3.7 1.3 1.6v47.4h-.8V447c0-1-.6-1.6-1.4-1.6"/><path fill="#3d3d3d" d="M-128.6 493h4v1.4h-4V493z"/><path fill="#666" d="M-71.2 494.4h4V447c0-1-.7-1.6-1.6-1.6h-1c-.7 0-1.4.7-1.4 1.6v47.4z"/><path fill="#ccc" d="M-69.8 445.4h.7c.6 0 1.2.7 1.2 1.6v47.4h-.7V447c0-1-.6-1.6-1.3-1.6"/><path fill="#3d3d3d" d="M-71.2 493h4v1.4h-4V493z"/><path fill="#666" d="M-122.3 446.7h3.2V435h-3.3v11.7z"/><path fill="#ccc" d="M-120.7 446.7h1V435h-1v11.7z"/><path fill="#666" d="M-76.7 447.5h3.3v-11.7h-3.3v11.7z"/><path fill="#ccc" d="M-75 447.5h1v-11.7h-1v11.7z"/><path fill="#666" d="M-117.3 462.5c13 2 26 2 39 0 5-.7 9-5.2 9-10.5v-.2c0-4.2-3.7-7.4-8-7-13.7 1.3-27.5 1.3-41.2 0-4.2-.4-7.8 3-7.8 7v.2c0 5.3 3.8 9.8 9 10.5"/><path fill="#4d4d4d" d="M-117.3 457.3c13 2 26 2 39 0 4-.7 7.4-3.8 8.5-7.8.2.8.4 1.5.4 2.3v.2c0 5.3-3.8 9.8-9 10.5-13 2-26 2-39 0-5-.8-9-5.2-9-10.5v-.2c0-.8.2-1.5.4-2.2 1 4 4.5 7 8.7 7.7"/><g clip-path="url(#l)" transform="matrix(1.1648569,0,0,1.1648569,39.31682,-89.705925) matrix(-1.25,0,0,-1.25,245.26446,832.58223)"><path fill="#ccc" d="M276 305V303c-.5 0-1 .2-1.2.3l-.8.4-.4.3v1.4h2.3z"/></g><g clip-path="url(#m)" transform="matrix(1.1648569,0,0,1.1648569,39.31682,-89.705925) matrix(-1.25,0,0,-1.25,245.26446,832.58223)"><path fill="#ccc" d="M307.2 305.7v-2l-1-.5c-.3 0-.6-.2-.8-.3 0 0-.3 0-.4-.2v3h2.2z"/></g><path fill="#4d4d4d" d="M-112 404.3h28.3c6 0 10.8 4.5 11.2 10.4l1 17.3c.3 2.4-1.2 4.5-3.4 5.2-15 4.6-30 4.7-45.8 0-2.2-.7-3.7-2.8-3.6-5.2l1.2-17.3c.4-6 5.3-10.4 11.2-10.4"/><path fill="#666" d="M-82.4 408h-31c-3.8 0-7.2 2-9.5 4.7 1.4-5 5.8-8.4 11-8.4h28.3c5.2 0 9.6 3.5 10.8 8.4-2-2.8-5.6-4.6-9.4-4.6"/><path fill="#feb67c" d="M-85.7 410.4l.6 2 .7 2.2 1.4 4.4.8 2 .8 2.6.7-.5h.2l.2-.2 5.2-4.3.3-.2c-1.7-5-3-10.8-4.3-15.7-.7-3-1.4-5.5-2.2-7.2-.6-1.6-1.3-2.5-2-2.6l-1.4 10-1 7.6z"/><path fill="#feb67c" d="M-81.4 423.6c0 .6 2.4 2.3 4.6 3 1.4.6 2.7 1 3.3 1 1.2 0 1.8-.4 2-.8.2-.2.2-.4.2-.6-.3-1-1.3-4.2-3.4-8-.6-1-2-.7-3.5.4-1 .7-2 1.8-2.6 3-.4.7-.6 1.4-.6 2"/><g fill-opacity=".1" clip-path="url(#n)" transform="matrix(1.1648569,0,0,1.1648569,39.31682,-89.705925) matrix(-1.25,0,0,-1.25,245.26446,832.58223)"><path d="M282 322.6l-1-3c-.2-1-.5-2-1-3l-.3-1.2-.6-2c0-.4-1.6-1.4-3-2-.2 0-.3.2-.4.3.8.5 2.2 1.3 2.4 1.6 0 0 1.6 1.2-1 3.8.6 0 1 .4 1.4.8l1 1.4c.8 2 1.3 4.2 2 6.3v2.3l.7-5.2z"/></g><path fill="#fec496" d="M-78.2 419c0 .7.2 1.3.5 2 1.2 2.3 3.4 4 5.6 5.4 0 .2.3.3.6.4v-.6c-.2-1-1.2-4.2-3.3-8-.6-1-2-.7-3.5.4v.4M-82.7 397.4c0 1 0 2 .3 3 .4 1.8 1 3.6 1.6 5.3 1 3.2 2.2 6.5 3.4 9.7 0 .2.3.5.5.5.5-.2.5-.6.4-1l-4.4-17.7c0-.4-.3-1-.7-1-.2 0-.5 0-.7.3l-.3.8"/><path fill="#feb67c" d="M-123.7 418.3l.3.2 4.3 3.5 1 .8.2.3.7.6.8-2.7.6-2 1.4-4.4.8-2 .6-2.2-1-7.5-1.5-10v-.2c-.7 0-1.4 1-2 2.8-.8 1.7-1.5 4.2-2.2 7-1.3 5-2.6 10.7-4.2 15.7"/><path fill="#feb67c" d="M-117 423.6c0 .6-2.5 2.3-4.7 3-1.4.6-2.7 1-3.3 1-1.2 0-1.8-.4-2-.8-.2-.2-.2-.4 0-.6 0-1 1.2-4.2 3.3-8 .6-1 2-.7 3.4.4 1 .7 2 1.8 2.7 3 .3.7.5 1.4.5 2"/><g fill-opacity=".1" clip-path="url(#o)" transform="matrix(1.1648569,0,0,1.1648569,39.31682,-89.705925) matrix(-1.25,0,0,-1.25,245.26446,832.58223)"><path d="M300.7 322.6l1-3 1-3 .4-1.2.7-2c0-.4 1.6-1.4 3-2 .2 0 .3.2.4.3-.6.5-2 1.3-2.2 1.6-.2 0-1.7 1.2 1 3.8-.6 0-1 .4-1.5.8l-1 1.4c-.7 2-1.3 4.2-1.8 6.3-.2.7 0 1.5 0 2.3l-.8-5.2z"/></g><path fill="#fec496" d="M-120.3 419c0 .7-.2 1.3-.5 2-1 2.3-3.4 4-5.5 5.4l-.7.4c-.2-.2-.2-.4 0-.6 0-1 1.2-4.2 3.3-8 .6-1 2-.7 3.4.4v.4M-115.8 397.4c.2 1 0 2-.2 3l-1.6 5.3c-1 3.2-2.2 6.5-3.5 9.7-.2.2-.4.5-.6.5-.3-.2-.3-.6-.3-1l4.5-17.7c0-.4.3-1 .7-1 .3 0 .5 0 .7.3 0 .2 0 .5.2.8"/><path fill="#feb67c" d="M-116 436.3l12.5 4.6 4 1.4c.5.2 1-.2 1.5-.3l8.6-2.3 7.7-2c-.8-2.6-2.3-5-3.8-7-1-1.6-2.4-3.2-2.6-5-.3-2.7 1-10 1.7-11 .6-.7 1-1.5 1.2-2.4 0-.2 0-.4.2-.6.7-2.7.5-5.3.7-8v-2c0-.3 0-.7.2-1 0-1.7.2-3.3.3-5l.2-2v-1l-4-.6c-.7 0-1.3 0-2-.2l-5-1-4.2-.8h-1.3l-10.2 1.8-5.3 1 .2 2.3c0 2 .3 4 .4 6v.8c0 .3 0 1 .2 1.6 0 2 .4 5 .4 6s.2 2 .6 3c.3 1 .8 2 1.5 2.6 1.7 1.8 2 10.7 1 12-.7 1.4-2 2.4-2.8 3.6-1.3 1.7-2.2 3.6-2.2 5.7"/><g clip-path="url(#p)" transform="matrix(1.1648569,0,0,1.1648569,39.31682,-89.705925) matrix(-1.25,0,0,-1.25,245.26446,832.58223)"><path fill="#e6dcd4" d="M288.8 326.7c.8-.5 2.6-2.2 2.6-3 0 1 2 2.4 2.5 3-2.3-1-3-1-5.2 0"/></g><path fill="#00a99d" d="M-113.8 430.6c-1.3 1.7-2.2 3.6-2.2 5.8l12.5 4.5 4 1.4c.5.2 1-.2 1.5-.3l8.6-2.3 7.7-2c-.8-2.6-2.3-5-3.8-7-1-1.6-2.4-3.2-2.6-5-.2-1.2 0-3 .3-5 .3-2.7 1-5.4 1.4-6 .5-.5.8-1.2 1-2l.2-.4c0-.2 0-.4.2-.6.7-2.7.5-5.3.7-8v-2c0-.4 0-.8.2-1 .3-2 1.3-4 2.6-5.3-.6-1.6-1.3-2.5-2-2.6l-4.2-.7c-.6 0-1.2 0-1.8-.2-1 2.3-3.8 8.4-10 8.4-5.2 0-9-5.2-10.8-8.4l-5.3 1c-.7 0-1.4 1-2 2.8 1 1 2 2.5 2.7 5.3.2.7.2 1.5.2 2.4 0 2 .4 5 .4 6s.2 2 .6 3c0 .3 0 .5.2.7.3.8.7 1.5 1.3 2 .8.8 1.3 3.2 1.5 5.6.3 2.8 0 5.8-.4 6.5-.7 1.4-2 2.4-2.8 3.6"/><g fill-opacity=".1" clip-path="url(#q)" transform="matrix(1.1648569,0,0,1.1648569,39.31682,-89.705925) matrix(-1.25,0,0,-1.25,245.26446,832.58223)"><path d="M301 320.8c-.3-.5-.5-1-1-1.4-.4-.5-.8-2-1-3.8l-1 .3c-4.6 1-9.3 1-13.2 0-.4-.3-1-.4-1.3-.5-.3 2-.7 3.7-1 4-.4.5-.5 1-.7 1.5 1.5-1 3.4-1.2 5-1 2.2 0 2.2 1.2 4.4 1.3h.5c2.2 0 2.6-1.3 4.8-1.5 1.5 0 3 .3 4.5 1"/></g><path fill="#c1272d" d="M-112.8 452h27.2c2.4 0 4.4-1.6 4.8-4 .6-3.7.5-7.6-1.6-12.3-11.6 1.4-23 1.8-33.6.6-.3 7.6.5 13.3 3.2 15.8"/><path fill="#a32126" d="M-113 446h25.8c2.2 0 4.6-.7 5.2-2 .5-1.4 1-3 1-4.7.7 3 .7 6 .2 8.7-.4 2.4-2.4 4-4.8 4h-27.2c-2.5-2.2-3.4-7.2-3.3-13.8 0 3.7 1 6.5 3 7.8"/><path fill="#feb67c" d="M-112.8 449v1.2c0 2.2.5 5 1 8 .2.2.2.5.3.8v.6l1.4 5.5c0 .4 0 .6.2 1l1.8 6.4c1.5 4.8 3 9.6 4.7 13.7l2 5.2c.3.8.5 1.5.6 2.3V495.4l.2.5v.5c0 2 .5 3 1.2 4.4l1.7 3.7c.5 1.3 1.3 5.4 3.5 6.5 1 .5 3 0 3.4-1v-.4l-1-4.7c-.4-2.7-.8-5.4-1.5-8-.8-2.5-2.4-4.8-2.8-7-2-7.8-.7-28.2-5-38.5-.8-2.2-2-4-3.4-5-1.3-.8-2.5-1.2-3.6-1.3-2.8-.2-5 1.8-5 3.8"/><path fill="#4d4d4d" d="M-100.7 494v1.3c.2.3.2.7.2 1 0 2.2.5 3.4 1.2 5l1.7 3.6c.6 1 1.4 5.3 3.5 6.4 1.2.6 3.7 0 3.4-1.3l-1-4.6c0 .2-.3.4-.5.5-.5.2-2.8.6-3.3.5-2.4-.4-2.3-3-3-5.4-1-2.2-1-4.7-2.3-6.8v-.2"/><path fill="#823f15" d="M-100.7 493.5V495.4l.2.5v.5c0 2 .5 3 1.2 4.4l1.7 3.7c.5 1.3 1.3 5.4 3.5 6.5 1 .5 3 0 3.4-1v-.4l-1-4.7-.5.4c-.5.3-2.8.7-3.3.7-2.4-.3-2.3-3-3-5.4-1-2.3-1-4.8-2.3-7"/><g fill-opacity=".1" clip-path="url(#r)" transform="matrix(1.1648569,0,0,1.1648569,39.31682,-89.705925) matrix(-1.25,0,0,-1.25,245.26446,832.58223)"><path d="M294.2 271.3l-1.4-3.6c-.2-.6-.4-1-.4-1.7v-.4-.7-.3-.3-.4h-.2c0-1.5-.3-2.4-.8-3.4L290 258c-.2-1-.8-4-2.4-4.7-.8-.5-2.7 0-2.4 1v.2l.7 3.4c.2 1.8.4 3.7 1 5.5.4 1.8 1.6 3.5 2 5 1.2 5.6.4 20.2 3.4 27.5.2-.3.5-.7.7-1.7 1.2-5.3 1.5-14.3 1.2-23"/></g><path fill="#feb67c" d="M-101 510.3c-.2.2 0 .3 0 .5.3 1 2.4 1 3.5.3 2-1.3 2-5.6 2.4-7l.3-1.3.8-2.5c.5-1.5.8-2.7.6-4.6v-.4-.2l-.2-1.6v-.5c0-1 0-1.7.2-2.5 1.3-5 2.8-12.3 3.8-19.6l1-6.8v-.8l.5-5.7v-.5-1c0-3 0-4.3-.4-6.5v-.6-.5c-.3-.7-1.6-3-2.2-3.6-1-1-2.2-1.4-4-1-1 .3-2.2 1-3.3 2-7.3 7 0 34.4-1 44.3 0 2-1.3 4.6-1.6 7.3-.3 2.5-.3 5.2-.3 8v4.7"/><path fill="#4d4d4d" d="M-101 510.8c-.2 1.4 2.4 1.6 3.5.7 2-1.4 2.2-5.6 2.5-7 0-.5.3-1 .4-1.5l.8-2.4c.4-1.5.7-3 .4-5v-.4-.2l-.2-1.7v.2c-.8 2.3-.7 4.8-1.2 7.2v1.4c-.3 2-.4 4-2.2 4.5-.5.2-2.8 0-3.3 0l-.6-.6v4.8"/><path fill="#823f15" d="M-101 510.3c-.2.2 0 .3 0 .5.3 1 2.4 1 3.5.3 2-1.3 2-5.6 2.4-7l.3-1.3.8-2.5c.5-1.5.8-2.7.6-4.6v-.4-.2l-.2-1.6v-.5c-1 2.4-.8 4.8-1.2 7.2l-.2 1.7c-.2 1.8-.3 3.5-2 4-.6.2-2.8 0-3.3 0l-.6-.5v4.8"/><g fill-opacity=".1" clip-path="url(#s)" transform="matrix(1.1648569,0,0,1.1648569,39.31682,-89.705925) matrix(-1.25,0,0,-1.25,245.26446,832.58223)"><path d="M289.2 263l-.7-3.2v-.2l-.3-.4v-.2l-.5 1.6c-.4 1-.6 2-.4 3.5v.4l.2 1.2v.4c0 .5 0 1-.2 1.6-.8 3.5-1.8 8.4-2.6 13.5l-.6 4.7v.5c0 1.4-.2 2.7-.3 4v1c0 2 0 3 .2 4.4v.8c0 .5 1 2 1.4 2.5v-.5c-1.2-12 5-23.6 3.8-35.4"/></g><path fill="#754c24" fill-rule="evenodd" d="M-88 387c-3.5 2.2-8.3 2.2-11.2 2.2-1.6 0-7.5-1-10.3-2.2 1.7-1.8 2-5.3 1-7.6h18.7c-.6 1.6.5 7.6 1.7 7.6"/><path fill="#feb67c" fill-rule="evenodd" d="M-100.5 393.3h2.5c2.3 0 4-1.6 4-3.6v-9h-10.5v9c0 2 1.8 3.6 4 3.6"/><g fill-opacity=".1" clip-path="url(#t)" transform="matrix(1.1648569,0,0,1.1648569,39.31682,-89.705925) matrix(-1.25,0,0,-1.25,245.26446,832.58223)"><path fill-rule="evenodd" d="M287.7 338v3.7h7.3V338s-1.3-2.8-3.6-2.8-3.7 2.8-3.7 2.8"/></g><path fill="#feb67c" fill-rule="evenodd" d="M-109.2 374.7v1.7c.8 7 5 13.2 10 13.2 4.7 0 9-6 9.8-13v-.5-1.3c0-4-2.3-7.5-5.7-9-.8-.4-1.6-.6-2.4-.8l-1.8-.3c-5.5 0-10 4.5-10 10"/><path fill="#feb67c" fill-rule="evenodd" d="M-89.8 376c.8 0 1.4.7 1.4 1.5v.5c0 1.3-1 2.5-2.2 3 .5-1.7.8-3.3.8-5M-108.7 376c-.8 0-1.3.7-1.3 1.5v.5c0 1.3.8 2.5 2 3-.4-1.7-.7-3.3-.7-5"/><path fill="#754c24" fill-rule="evenodd" d="M-108 371.7c4 1 8.2.6 11.8-1.2 1-.5 2.2-1 2.7-2 1-2.2.7-4.5-2.5-5.8-1.5-.6-3-.5-4.7-.2-4.2.8-8 4-9.6 8 .7.6 1.4 1 2.3 1.2"/><path fill="#754c24" fill-rule="evenodd" d="M-95.8 368.6c.2 1.3 1.4 2.3 2.3 3.3 1.8 1.8 2.5 4.5 2 7 .4 0 .7.2 1 .3.5-1 .8-2 1-3.2 1 0 1.2-1 1.4-2 .2-3.2-1-5-2.6-7-.6-.8-2-1.4-3-1.3-.7 0-1.4.5-1.8 1-.4.8-.5 1.5-.3 2.3v-.4zM-108.6 369.2c.5-.3 1-.6 1.7-.3.7 0 1 1 1 1.6l-.8 2c-.8 1.8-.8 4-.2 6-.3 0-.6 0-1 .2-.6-.8-1-1.6-1.3-2.6-.7-.3-1.2-1-1.2-1.8 0-2 .2-4 2-5.2"/><path fill="#3da1ed" d="M-98.8 429.8v4c-1.2-1.7-7.8-3.2-14-4.2l-3-.5h-1.8s-.2 0-.3-.2c-.7 0-1.4 0-2-.2h-1.3-.4-.4l-.6-.2h-.4-.3v-6.6l1 .7c.7.5 1.7 1 2.7 1.3.4 0 .7.3 1 .4 2.6.7 5.5 1 8.2 1.5 6 1 11.6 1.5 11.6 4"/><path fill="#feb67c" d="M-122.5 430.5l-2.5-.6-1-.4c-.2 0-.4-.2-.5-.5-.5-1-1.7-4.5-1.4-6 .3-.7 2-1.7 3-2 1.3 0 1.7 1 1.7 1v2l.6 1.8.2 4.7z"/><path fill="#feb67c" d="M-115.5 429.8c0 .3 0 .4-.2.5-.2.2-.3.2-.5.2h-6.3v-2h5.7c.4 0 .8.3 1 .6l.3.8"/><path fill="#e0b089" d="M-122.5 430.5l-2.5-.6-1-1.6h1.3l2.2 2z"/><path fill="#feb67c" d="M-124.8 426.7l3.4 2-1 1.8-3.5-2 1.2-1.8z"/><path fill="#e0b089" d="M-118.5 427.5l-3.5-1-1.7-1-1 1.2 1.8 2 4.7.6c.4 0 .7 0 .8-.5 0-.7-.3-1.2-1-1.3"/><path fill="#feb67c" d="M-118.3 429.2l-4.6-1 .6-2 4 1c.6 0 1 .8 1 1.5h-.2c0 .4-.4.6-.7.5"/><path fill="#feb67c" d="M-125 426.6l2 1.5 1.3-1.4-2-1.5-1.2 1.6z"/><path fill="#f7cead" d="M-118 429.3l-2-.5v-.2c0-.4.4-.7.8-.6l1.2.3s.2 0 .2.2l-.2.8z"/><path fill="#e0b089" d="M-122.7 425.8l-.4-.3c-.8-.5-1-1.4-.5-2l.2-.3v.8l.6 1.8z"/><path fill="#f7cead" d="M-115.7 429.8v.7h-2.2v-.2c0-.4.4-.7.8-.7h1.3c.2 0 .3 0 .3.2"/><path fill="#3da1ed" d="M-74.3 421.8c-5.7 5.2-24.5 3-24.5 8v4c2.2-3 22-5.6 24.5-5.4v-6.6z"/><path fill="#ffe8c2" d="M-98.8 429.8c0-5-18.7-2.8-24.5-8v.5c5.8 5.2 24.5 3 24.5 8 0-5 18.8-2.8 24.5-8v-.5c-5.7 5.2-24.5 3-24.5 8"/><path fill="#feb67c" d="M-71 429c0 .4-.4.6-.6.6l-1 .3-2.3.5v-3.3l.2-1v-.4l.4-1.3.2-.5v-2s.4-1 1.7-1c1 .3 2.7 1.3 2.8 2 .3 1.5-1 5-1.4 6M-75 428.5v2h-6.4s-.3 0-.4-.2l-.2-.4v-.2-.5s.2 0 .2-.2c.2-.2.6-.5 1-.5h5.8z"/><path fill="#e0b089" d="M-71.6 428.4l-1 1.5-2.3.5 2.2-2.2h1.2z"/><path fill="#feb67c" d="M-72.7 426.7l-3.4 2 1 1.8 3.4-2-1-1.8z"/><path fill="#e0b089" d="M-79 427.5l3.5-1 1.7-1 1 1.2-2 2-4.5.6c-.3 0-.6 0-.7-.5-.2-.7.3-1.2 1-1.3"/><path fill="#feb67c" d="M-79.3 429.2l4.6-1-.4-2-4 1c-.7 0-1.2.8-1 1.5 0 .4.4.6.7.5"/><path fill="#feb67c" d="M-72.7 426.6l-2 1.5-1-1.4 2-1.5 1 1.6z"/><path fill="#f7cead" d="M-79.5 429.3l2-.5v-.2c0-.4-.4-.7-.8-.6l-1.3.3v1z"/><path fill="#e0b089" d="M-74.8 425.8l.4-.3c.6-.5.8-1.4.3-2l-.2-.3v.8l-.6 1.8z"/><path fill="#f7cead" d="M-79.6 430.3v.2h-2.2v-.7s0-.2.2-.2h1.2c.4 0 .8.3.8.7"/><path fill="#fff" d="M-418.8 424h23.3c5.7 0 10.2 4.7 10.2 10.3v52.2c0 1.2-1 2.2-2.2 2.2H-427c-1 0-2-1-2-2.2v-52.2c0-5.6 4.5-10.2 10.2-10.2"/><path fill="#e8e8e8" d="M-417.7 446.8h21c3 0 5.4-2.3 5.4-5.3v-5.8c0-3-2.4-5.3-5.3-5.3h-21c-3 0-5.4 2.4-5.4 5.3v5.8c0 3 2.4 5.3 5.3 5.3"/><path fill="#fff" d="M-401.4 441.4h2.6v-6.7c0-.5-.4-1-.8-1h-1c-.4 0-.8.5-.8 1v6.7z"/><path fill="#e30000" d="M-401.4 436.2h2.6v-1.4h-2.6v1.4z"/><path fill="#fff" d="M-413 441.4h-2.5v-6.7c0-.5.3-1 .8-1h1c.4 0 .8.5.8 1v6.7z"/><path fill="#0071bc" d="M-413 436.2h-2.5v-1.4h2.6v1.4z"/><path fill="#6da0bd" d="M-414.7 421h15c1 0 1.8.6 1.8 1.6v1.5h-18.4v-1.4c0-1 .7-1.7 1.7-1.7"/><path fill="#7fbadb" d="M-425 390.4c0 1.5 1.6 2.4 3 1.6l.7-.5c2.4-1.5 4-4 4-7v-6.7c0-2.8-1.6-5.5-4-7l-.8-.5c-1.4-.7-3 .2-3 1.6v18.4zm-.7-43.3h37c2.8 0 5 2.3 5 5v60.2c0 3.2-7.5 6.6-15.6 8.7H-415c-6.7-1.6-15.7-5.7-15.7-8.8v-60c0-3 2.2-5 5-5"/><path fill="#85c3e6" d="M-393.8 414h1.2c1.8 0 3.3-1.4 3.3-3.2v-57c0-2-1.5-3.4-3.3-3.4h-1.2c-2 0-3.4 1.5-3.4 3.4v57c0 1.8 1.5 3.3 3.4 3.3"/><path fill="#76adcc" d="M-427 350h5.2c1.2 0 2 1 2 2v20.2l-1.5-1.4-.8-.5c-1.4-.7-3 .2-3 1.6v18.4c0 1.5 1.6 2.4 3 1.6l.7-.5 1.6-1.3V411c0 1.2-1 2.2-2 2.2h-5.3c-1.2 0-2-1-2-2.2v-59c0-1 .8-2 2-2"/><g><g clip-path="url(#u)" opacity=".5" transform="matrix(-1.4562067,0,0,-1.4562067,303.55834,871.95523)"><path fill="#76adcc" d="M504.7 351.8h-33.3c-.5 0-1 .4-1 1v3.4c0 .5.5 1 1 1h33.3c.5 0 1-.5 1-1v-3.5c0-.5-.5-1-1-1"/></g></g><g><g clip-path="url(#v)" opacity=".5" transform="matrix(-1.4562067,0,0,-1.4562067,303.55834,871.95523)"><path fill="#76adcc" d="M504 316.7H472c-1 0-1.7.7-1.7 1.7v2c0 .8.8 1.6 1.7 1.6H504c.8 0 1.6-.8 1.6-1.7v-2c0-1-.8-1.6-1.7-1.6"/></g></g><path fill="#b1daf2" d="M-431.4 352h48.4c.8 0 1.4.5 1.4 1.2v1c0-.6-.6-1.2-1.4-1.2h-48.4c-.7 0-1.3.6-1.3 1.3v-1c0-.8.6-1.4 1.3-1.4M-430.2 403h46c1.5 0 2.6 1.2 2.6 2.5v1c0-1.3-1-2.4-2.5-2.4h-46.2c-1.4 0-2.5 1.2-2.5 2.6v-1c0-1.4 1-2.5 2.5-2.5"/><path fill="#e3ab43" d="M-362.4 298h67V501h-67V298z"/><path fill="#ab731b" d="M-299.8 302.2H-358v194.6h58.2V302.2z"/><path fill="#de6567" d="M-358 314.7h9v38.6h-9v-38.6z"/><path fill="#fff" d="M-357 346.2h7v4h-7v-4z"/><g fill-opacity=".1"><g clip-path="url(#w)" transform="matrix(-1.4562067,0,0,-1.4562067,303.55834,871.95523)"><path d="M454.3 382.7l-6.2-26.5h6.3v26.5z"/></g></g><path fill="#de6567" d="M-348 314.7h9v38.6h-9v-38.6z"/><path fill="#fff" d="M-347 346.2h7v4h-7v-4z"/><g fill-opacity=".1"><g clip-path="url(#x)" transform="matrix(-1.4562067,0,0,-1.4562067,303.55834,871.95523)"><path d="M447.5 382.7l-6.2-26.5h6.2v26.5z"/></g></g><path fill="#3f8bb3" d="M-338 314.7h9v38.6h-9v-38.6z"/><path fill="#fff" d="M-337 346.2h7.2v4h-7.3v-4z"/><g fill-opacity=".1"><g clip-path="url(#y)" transform="matrix(-1.4562067,0,0,-1.4562067,303.55834,871.95523)"><path d="M440.6 382.7l-6.3-26.5h6.3v26.5z"/></g></g><path fill="#3f8bb3" d="M-358 369.5h9.6v40.7h-9.6v-40.7z"/><path fill="#fff" d="M-357 371.6h7.6v16h-7.7v-16z"/><g fill-opacity=".1"><g clip-path="url(#z)" transform="matrix(-1.4562067,0,0,-1.4562067,303.55834,871.95523)"><path d="M454.3 345.3l-6.6-28h6.6v28z"/></g></g><path fill="#4d4d4d" d="M-356 405c0 1.5 1.2 2.7 2.8 2.7 1.5 0 2.8-1.2 2.8-2.8 0-1.7-1.3-3-2.8-3-1.6 0-3 1.3-3 3"/><path fill="#d6c489" d="M-353.2 402.5c1.2 0 2.3 1 2.3 2.4 0 1.2-1 2.2-2.2 2.2-1.3 0-2.4-1-2.4-2.3 0-1.4 1-2.5 2.4-2.5m0 5.7c1.8 0 3.2-1.5 3.2-3.3 0-2-1.4-3.4-3.2-3.4-2 0-3.3 1.5-3.3 3.3 0 1.7 1.4 3.2 3.3 3.2"/><path fill="#4d4d4d" d="M-356.3 374.3h6v-1h-6v1zM-356.3 376.6h6v-1h-6v1zM-356.3 379h6v-1.2h-6v1.2z"/><path fill="#de6567" d="M-338.5 369.7h9.6v40.7h-9.5v-40.7z"/><path fill="#fff" d="M-337.5 371.8h7.6v16h-7.5v-16z"/><g fill-opacity=".1"><g clip-path="url(#A)" transform="matrix(-1.4562067,0,0,-1.4562067,303.55834,871.95523)"><path d="M441 345.2l-6.7-28h6.6v28z"/></g></g><path fill="#4d4d4d" d="M-336.5 405c0 1.6 1.3 3 2.8 3 1.6 0 2.8-1.4 2.8-3 0-1.5-1-2.7-2.7-2.7-1.5 0-2.8 1.2-2.8 2.8"/><path fill="#d6c489" d="M-333.7 402.7c1.3 0 2.4 1 2.4 2.4s-1 2.4-2.4 2.4c-1.3 0-2.3-1-2.3-2.3 0-1.2 1-2.3 2.3-2.3m0 5.7c1.8 0 3.3-1.5 3.3-3.3 0-1.7-1.5-3.2-3.3-3.2-1.8 0-3.3 1.5-3.3 3.3 0 2 1.5 3.4 3.3 3.4"/><path fill="#4d4d4d" d="M-336.7 374.5h6v-1h-6v1zM-336.7 376.8h6v-1h-6v1zM-336.7 379h6v-1h-6v1z"/><path fill="#31a81d" d="M-348.4 369.5h9.6v40.7h-9.6v-40.7z"/><path fill="#fff" d="M-347.4 371.6h7.6v16h-7.6v-16z"/><g fill-opacity=".1"><g clip-path="url(#B)" transform="matrix(-1.4562067,0,0,-1.4562067,303.55834,871.95523)"><path d="M447.7 345l-6.6-28h6.7v28z"/></g></g><path fill="#4d4d4d" d="M-346.4 405c0 1.5 1.2 2.7 2.8 2.7 1.6 0 2.8-1.2 2.8-2.8 0-1.7-1.2-3-2.8-3-1.6 0-2.8 1.3-2.8 3"/><path fill="#d6c489" d="M-343.6 402.5c1.3 0 2.4 1 2.4 2.4 0 1.2-1 2.2-2.4 2.2-1.3 0-2.3-1-2.3-2.3 0-1.4 1-2.5 2.4-2.5m0 5.7c1.8 0 3.3-1.5 3.3-3.3 0-2-1.5-3.4-3.3-3.4-1.8 0-3.3 1.5-3.3 3.3 0 1.7 1.6 3.2 3.4 3.2"/><path fill="#4d4d4d" d="M-346.6 374.3h6v-1h-6v1zM-346.6 376.6h6v-1h-6v1zM-346.6 379h6v-1.2h-6v1.2z"/><path fill="#e3ab43" d="M-362.4 358.2h67v-5h-67v5zM-362.4 415h67v-5h-67v5z"/><path fill="#f0bb59" d="M-358 415h58.2V497H-358V415z"/><g fill-opacity=".1"><g clip-path="url(#C)" transform="matrix(-1.4562067,0,0,-1.4562067,303.55834,871.95523)"><path d="M415 313h39.3v.7h-40v-56h.8V313z"/></g></g><g fill-opacity=".1"><g clip-path="url(#D)" transform="matrix(-1.4562067,0,0,-1.4562067,303.55834,871.95523)"><path d="M421.5 307.2c0-1-.8-1.8-1.8-1.8s-1.8.8-1.8 1.8.7 1.8 1.7 1.8 1.8-.8 1.8-1.8"/></g></g><path fill="#ccc" d="M-309 423.4c0 1.5 1.2 2.7 2.7 2.7 1.4 0 2.6-1 2.6-2.6 0-1.4-1.2-2.6-2.6-2.6-1.5 0-2.6 1.2-2.6 2.6"/><path fill="#f2f2f2" d="M-307 422.5c0 .8.7 1.4 1.5 1.4.7 0 1.3-.7 1.3-1.5 0-.7-.6-1.3-1.3-1.3-.8 0-1.4.6-1.4 1.3"/><path fill="#8a312d" d="M-321.6 353.2h4.5v-35.5h-4.6v35.5z"/><g><g clip-path="url(#E)" opacity=".5" transform="matrix(-1.4562067,0,0,-1.4562067,303.55834,871.95523)"><path fill="#dbddd0" d="M428.6 370H427v6.8h1.6v-7z"/></g></g><g><g clip-path="url(#F)" opacity=".5" transform="matrix(-1.4562067,0,0,-1.4562067,303.55834,871.95523)"><path fill="#dbddd0" d="M429.3 359.3h-3v1.4h3v-1.4z"/></g></g><path fill="#464740" d="M-317 353.2h2.3v-37.6h-2.4v37.6z"/><path fill="#5f6158" d="M-316.7 353.2h1.6v-37.6h-1.7v37.6z"/><path fill="#ffb65e" d="M-314.7 353.2h8v-35.7h-8v35.7z"/><path fill="#e88200" d="M-314.7 353.2h8v-11h-8v11zM-314.7 320.2h8v-.7h-8v.7z"/><path fill="#d4ae81" d="M-312.3 340.5h3.3v-19.7h-3.3v19.7z"/><path fill="#29abe2" d="M-306.6 353.2h2v-32.4h-2v32.4z"/><path fill="#ffe099" d="M-299.8 353.2h-5v-36.7h5v36.7z"/><path fill="#fcc03a" d="M-299.8 351h-5v-1.6h5v1.5zM-299.8 320.5h-5v-4h5v4z"/><path fill="#603813" d="M-263.5 489.7h9.6c2 0 3.8-.8 5-2.2 4.8-6 7.2-17 8-30.5h-35.4c.4 13.7 2.7 24.3 8.2 30.6 1.2 1.3 3 2 4.7 2"/><path fill="#874e1a" d="M-245.4 457c-.8 15.5-3 27.4-7.7 32.7h-2.3c3-5.3 4.2-17.2 4.7-32.7h5.2z"/><path fill="#534741" d="M-276.4 457c0 .5 8 1 17.8 1s17.7-.5 17.7-1c0-.4-7.8-.8-17.6-.8s-17.8.4-17.8.8"/><path fill="#8f7a63" d="M-264.2 457c1 .5 10 .6 10.7 0v-.6c0-.2 0-.4-.2-.6v-.6l-.7-6V448l-.2-1v-.8-.8l-.6-4.8c0-1.3-.2-2.5-.3-3.8v-2l-.3-2.8v-1.2-.4-1.2-.4c-.2-1.2-.2-2.3-.2-3.4v-1.7-1.6V419v-.5-1.3c0-2.6 0-5.2.2-7.7 0-1.3-1.7-2.3-3-2.6-1.2-.4-2.7 0-3.5 1-.7 1.2-.7 2.6-.6 4v1l.2 3.7V435c0 .5 0 1-.2 1.5v2.6l-.4 5.8v1.7l-.4 4v2.2c-.2.2-.2.3-.2.5 0 1 0 1.8-.2 2.7v.7c0 .3-.3.5 0 .6"/><path fill="#735227" d="M-264 452c2.7-.2 7.4-1.4 9.6-2.8l.7 6c-2-.2-7-1.5-10.2-2.6v-.5zM-254.7 446.2c-4.4-.2-7-.8-8.7-1.4l.3-5.7c2.2 2 6.2 5 8.3 6.4v.8zM-263 436.5c1.7 0 4.4-.4 7.4-1.7 0-1 0-2-.2-2.8v-1.2c-2 1-5.2 3-7 4.2 0 .5 0 1-.2 1.5M-256 429.2c-1.5.4-4.8.4-6.8-.2v-4.2c2 1 5.2 3 7 4v.4zM-262.7 422.3c2-.7 4.8-1.2 6.6-2.2v2c-2.2.8-4.5 1.2-6.7 1v-.7zM-263 413l.2 3.7c2 1.3 5.2 2 6.7 1.8v-1.3c-1.5-1-4.8-2.5-7-4.2"/><path fill="#b8a372" d="M-262.8 419.3l1.4.7 2.4.3h1.6c.4-.2 1-.4 1.3-.7v-.7h-1.5c-1.8.2-3.6.3-5.3-.2v.5zM-262.7 424c.3.4.8.5 1.2.7 1.8.5 3.6 1 5.4.7v-1.7h-.3c-1 0-2.2.6-3.3.7-1 .2-2 0-3-.4zM-255.8 430.6l-4 1c-.6 0-1.3.2-2 .4-.3 0-.7.2-1 .4v-3c.6.4 1.3.6 2 .8 1.6.3 3.3 0 5 .2v.2zM-263 437.4c2 .3 4.3 0 6.5-.4.3 0 .7 0 1-.2 0 1.3.2 2.5.3 3.8-2.7-.5-5.2-2-7.8-3v-.2zM-254.5 448c-.7.5-1.6.7-2.4.8-1.2.3-2.6.4-4 .8l-2.8 1c0-1.5.2-2.8.3-4 1.2.4 2.5.7 3.8.7 1.7 0 3.4-.4 5-.3l.2 1zM-264 453c1.6.5 3 1.4 4.5 1.8.8.3 1.6.4 2.4.5 1 0 2.2.3 3.3.5v.6h-1c-1.6 0-3.2 0-5-.2-1.5 0-3 0-4.5-.5l.2-2.6z"/><path fill="#43591f" d="M-267.6 392c1 4.4 1.8 8.7 3.2 13 .7 2 .8 5 3 5.2 1.4.2 4.8.5 5.4-.8 4.3-9 8.8-23.6 14-35.2l4-8.8c-4 3.6-5.5 9-8.3 13.8-.7 1.3-1.6 2.5-2 4-.5 1.2-.6 2.5-1 3.8-.3 2-1.3 4-2.2 5.7-2.3 4.8-3.6 10-5 15 2.8-17 9.2-33.5 9.6-50.7-2 8-4.3 16.3-6.5 24.5-1 3.2-1.7 6.5-2.3 9.8l-.8 5.4-1 8.8c0-16-.2-32-3-47.5-2 16 1.5 32.4.5 48.6 0-2.6-1-5-1.6-7.5-.4-2-.4-4-.5-6-.5-9.8-2.3-19.4-5.4-28.5-.3 3.4.2 7 .7 10.3l3 22c.7 4 1.2 8 2.3 11.8-2.3-13.8-4.6-27.8-11.2-40l5 23.5"/><path fill="#6c8e20" d="M-266 366.5c.6 4.3 2 8.5 3 12.8 2.2 9.6 2.5 19.7 2.7 29.6 2-6.7 1.5-14 .8-20.8l-.8-6.6c-.5-2.7-1.3-5.4-2-8-1.7-6.4-3.2-12.8-4.5-19 0 4 0 8 .7 12"/><path fill="#325e00" d="M-260 405c.5-5.4-.8-11-2.6-16.3-1.7-5.2-4-10.4-5.3-15.8-1-4.2-1.4-8.4-1.8-12.6-1.5 3.7-.4 8 .8 11.7l6 20.4c1.4 4.2 2.6 8.4 3 12.7"/><path fill="#344518" d="M-267.2 389.4c-1.2-4-2.6-8-4.3-12-.4-1-1-1.8-1.7-2.4-1.3-.8-3-.6-4.3-.3-7 1.4-14 2.8-20.2 6 7.5-2 15-3 22.7-3.8 4 10.7 8.7 21 14 31.2-.3-3-1-5.7-2-8.4-.8-1.5-1.7-3-2.3-4.5-.8-2-1.3-4-2-6"/><path fill="#6c8e20" d="M-269.4 378c-.8-1-2-2-3.3-1.8-.5 0-1 .3-1.4.5-4.7 2.3-9.4 4.6-13.5 7.7 1-1 2.5-1.2 3.8-1.5 3.7-1 7.3-2.3 10.5-4.3 5.4 9.5 10.3 19.3 14.5 29.4-2-8.2-5-16.3-8-24.4-.6-2-1.4-4-2.7-5.6"/><path fill="#5a751b" d="M-259 353.6c-3.2 18.5.2 37.4-1.2 56l2-7.5c.4-2 1.4-3.8 1.2-5.8-1.4-15.4-2.6-29-2-42.6"/><path fill="#6c8e20" d="M-255.2 397.8c2-5 3-10.6 4-16 1.6-9.4 11.4-18.8 13-28.2-4.3 18-16.8 36-21.2 53.8 0 .4-.2 1 0 1.3.2.4 1 .6 1 .2 0-4 1.8-7.6 3.2-11.2"/><path fill="#6c8e20" d="M-256.8 376c1-6.2 2-12.5 2.8-18.7.2-1.6.5-3.2 1.5-4.4l-6 55.7c-.4.2-1 0-1.4-.2 0-7 3-14 3-21.2 0-2-.4-4-.4-6 0-1.8.3-3.5.6-5.3"/><path fill="#5a751b" d="M-259.6 409c5.2-14.2 5-29.7 7.7-44.6 1.7 2.2 4 4 6.3 5.4-1.8-3.4-4.2-6.4-7.3-8.7-2.8 16-5.6 32-6.6 48"/><path fill="#5e7d2c" d="M-252.8 395c2-5 4.7-10 7.6-14.7l.3-.2c.2 0 .4 0 .5.3l7.2 6.6c-2-3.3-4.5-6-7.5-8.3-7 9.2-12 20-14.8 31 .6 0 1.4 0 1.8.6l2.4-7.5c.8-2.6 1.6-5.2 2.6-7.8"/><path fill="#43591f" d="M-258.3 409.3c-.3.5.4 1 1 .5 3.2-2.3 4.7-7.8 7-11 2.6-3.3 5.7-6.4 6.5-10.4l8.5 8.6c-2.2-4.3-5.2-8-9-11.3-5.6 7-8 13-14 23.6"/><path fill="#536e26" d="M-259 406.5c0 .7.4 1.5.3 2.2 0 .8-.6 1.6-1.3 1.7-2.2-9.4-1.5-19.4-4-28.7-.7 2.8-1.2 5.6-1.6 8.4 0-3.7.4-7.6 1.2-11.4 2.4 4 3 9 3.6 13.7.4 4.8.5 9.6 1.7 14.2"/><path fill="#5e7d2c" d="M-274 383l-2.2 5c-1 2.2-2 4.4-2.4 6.8 2.2-4.4 4.7-8.6 7.4-12.7 2 4 4 8 5 12 .8 2.7 1.2 5.3 1.8 7.8.6 2.6 1.4 5.2 2.5 7.7.2.2.3.4.5.4s.5-.2.6-.4c.2-.3 0-.5 0-.8l-2-8c-1.2-5.2-2.5-10.3-4.7-15-1-2-2-4-3.3-6l-.3-.2c-.2 0-.3 0-.4.2-1 1-1.6 2-2.2 3.2"/><path fill="#536e26" d="M-272 390.7l6.2-.8c.3-.2.6-.2.8 0 .2 0 .3.3.4.5.5 1 .8 2.3 1 3.5 1 5 2 10.2 2.8 15.3.2.2.6 0 .8-.2v-.7l-1.8-10c-.5-3-1-6-2-9 0-.3-.2-.6-.4-.7h-.6c-1.3.6-2.6.5-4 .6-1.2 0-2.6.4-3.3 1.5"/><path fill="#5e7d2c" d="M-262 408.8c-2-3.2-5-6-8-8-1-.8-2.2-1.4-3.3-1.4-.7 0-1.4.2-2 .5-2.8 1-5.3 2.7-7.3 5 .2-2.2 2-3.6 3.8-4.7 2-1 3.8-2 6-2.5l1-.2c.4 0 .8.5 1.2.8 3.3 3 6.4 6 9.3 9.5.5.5 1 1.3 1 2-.7 0-1-.6-1.6-1.2"/><path fill="#5a751b" d="M-256.6 409c.6-.4 1.3-.6 2-.8 1.4-.5 2.8-1 4-1.8.8-.6 1.8-1.5 2.8-1 .6 0 1 .6 1.4 1l2 3.2c.4-1.7-.2-3.5-1.4-4.6-1.3-1.2-3-1.6-4.7-1.2-2 .5-3.6 2.2-5.4 3.3-.2.3-.6.5-1 .7l-2.3 1.3v.8c.4.3 1 .3 1.5 0 .4 0 .8-.5 1.2-.7"/></g></svg>