<?xml version="1.0"?>
<svg xmlns="http://www.w3.org/2000/svg" width="550" height="275">
<style id="style4">.employer-left-arm{animation:employerarmAnimation linear 3s;animation-iteration-count:infinite;transform-origin:140px 130px;-webkit-animation:employerarmAnimation linear 3s;-webkit-animation-iteration-count:infinite;-webkit-transform-origin:140px 130px;-moz-animation:employerarmAnimation linear 3s;-moz-animation-iteration-count:infinite;-moz-transform-origin:140px 130px;-o-animation:employerarmAnimation linear 3s;-o-animation-iteration-count:infinite;-o-transform-origin:140px 130px;-ms-animation:employerarmAnimation linear 3s;-ms-animation-iteration-count:infinite;-ms-transform-origin:140px 130px}@keyframes employerarmAnimation{0%{transform:rotate(5deg)}50%{transform:rotate(-10deg)}100%{transform:rotate(5deg)}}@-moz-keyframes employerarmAnimation{0%{-moz-transform:rotate(5deg)}50%{-moz-transform:rotate(-10deg)}100%{-moz-transform:rotate(5deg)}}@-webkit-keyframes employerarmAnimation{0%{-webkit-transform:rotate(5deg)}50%{-webkit-transform:rotate(-10deg)}100%{-webkit-transform:rotate(5deg)}}@-o-keyframes employerarmAnimation{0%{-o-transform:rotate(5deg)}50%{-o-transform:rotate(-10deg)}100%{-o-transform:rotate(5deg)}}@-ms-keyframes employerarmAnimation{0%{-ms-transform:rotate(5deg)}50%{-ms-transform:rotate(-10deg)}100%{-ms-transform:rotate(5deg)}}.employee-speaking{animation:employeeSpeaking linear 4s;animation-iteration-count:infinite;transform-origin:0 0;-webkit-animation:employeeSpeaking linear 4s;-webkit-animation-iteration-count:infinite;-webkit-transform-origin:0 0;-moz-animation:employeeSpeaking linear 4s;-moz-animation-iteration-count:infinite;-moz-transform-origin:0 0;-o-animation:employeeSpeaking linear 4s;-o-animation-iteration-count:infinite;-o-transform-origin:0 0;-ms-animation:employeeSpeaking linear 4s;-ms-animation-iteration-count:infinite;-ms-transform-origin:0 0}@keyframes employeeSpeaking{0%{opacity:0}17%{opacity:1}33%{opacity:1}50%{opacity:0}100%{opacity:0}}@-moz-keyframes employeeSpeaking{0%{opacity:0}17%{opacity:1}33%{opacity:1}50%{opacity:0}100%{opacity:0}}@-webkit-keyframes employeeSpeaking{0%{opacity:0}17%{opacity:1}33%{opacity:1}50%{opacity:0}100%{opacity:0}}@-o-keyframes employeeSpeaking{0%{opacity:0}17%{opacity:1}33%{opacity:1}50%{opacity:0}100%{opacity:0}}@-ms-keyframes employeeSpeaking{0%{opacity:0}17%{opacity:1}33%{opacity:1}50%{opacity:0}100%{opacity:0}}.employer-speaking{animation:employerSpeaking linear 4s;animation-iteration-count:infinite;transform-origin:0 0;-webkit-animation:employerSpeaking linear 4s;-webkit-animation-iteration-count:infinite;-webkit-transform-origin:0 0;-moz-animation:employerSpeaking linear 4s;-moz-animation-iteration-count:infinite;-moz-transform-origin:0 0;-o-animation:employerSpeaking linear 4s;-o-animation-iteration-count:infinite;-o-transform-origin:0 0;-ms-animation:employerSpeaking linear 4s;-ms-animation-iteration-count:infinite;-ms-transform-origin:0 0}@keyframes employerSpeaking{0%{opacity:0}50%{opacity:0}67%{opacity:1}83%{opacity:1}100%{opacity:0}}@-moz-keyframes employerSpeaking{0%{opacity:0}50%{opacity:0}67%{opacity:1}83%{opacity:1}100%{opacity:0}}@-webkit-keyframes employerSpeaking{0%{opacity:0}50%{opacity:0}67%{opacity:1}83%{opacity:1}100%{opacity:0}}@-o-keyframes employerSpeaking{0%{opacity:0}50%{opacity:0}67%{opacity:1}83%{opacity:1}100%{opacity:0}}@-ms-keyframes employerSpeaking{0%{opacity:0}50%{opacity:0}67%{opacity:1}83%{opacity:1}100%{opacity:0}}</style>
<defs>
    <clipPath>
        <path d="M418.8 106.5h2.7v-6.8h-2.7v6.8z"/>
    </clipPath>
    <clipPath>
        <path d="M371 95.8h53.5v-16H371v16z"/>
    </clipPath>
    <clipPath>
        <path d="M373.2 141.5h.6V99.7h-.6v41.8z"/>
    </clipPath>
    <clipPath>
        <path d="M373.7 140.8h47.8v-41h-47.8v41z"/>
    </clipPath>
    <clipPath>
        <path d="M244 54.5h184V35H244v19.5z"/>
    </clipPath>
    <clipPath id="u">
        <path d="M426.2 360.7h3v-1.4h-3v1.4z"/>
    </clipPath>
    <clipPath id="t">
        <path d="M427 376.8h1.6v-7H427v7z"/>
    </clipPath>
    <clipPath id="s">
        <path d="M418 309h3.5v-3.6H418v3.6z"/>
    </clipPath>
    <clipPath id="r">
        <path d="M414.3 313.7h40v-56h-40v56z"/>
    </clipPath>
    <clipPath id="q">
        <path d="M441 345h6.7v-28H441v28z"/>
    </clipPath>
    <clipPath id="p">
        <path d="M434.3 345.2h6.6v-28h-7v28z"/>
    </clipPath>
    <clipPath id="o">
        <path d="M447.7 345.3h6.6v-28h-6.6v28z"/>
    </clipPath>
    <clipPath id="n">
        <path d="M434.3 382.7h6.3v-26.5h-6.3v26.5z"/>
    </clipPath>
    <clipPath id="m">
        <path d="M441.3 382.7h6.2v-26.5h-6.2v26.5z"/>
    </clipPath>
    <clipPath id="l">
        <path d="M448 382.7h6.3v-26.5H448v26.5z"/>
    </clipPath>
    <clipPath id="k">
        <path d="M470.5 322h35v-5.3h-35v5.3z"/>
    </clipPath>
    <clipPath id="j">
        <path d="M470.5 357h35v-5h-35v5.3z"/>
    </clipPath>
    <clipPath>
        <path d="M287.7 341.7h7.3v-6.5h-7.3v6.5z"/>
    </clipPath>
    <clipPath>
        <path d="M283.6 299h5.8v-40h-5.8v40z"/>
    </clipPath>
    <clipPath>
        <path d="M285.2 296h9v-43h-9v43z"/>
    </clipPath>
    <clipPath>
        <path d="M281.8 321.3H301v-5.8h-19.2v5.8z"/>
    </clipPath>
    <clipPath>
        <path d="M288.8 326.7h5v-3h-5v3z"/>
    </clipPath>
    <clipPath>
        <path d="M300.7 327.8h6.4v-16.4h-6v16.4z"/>
    </clipPath>
    <clipPath>
        <path d="M275.6 327.8h6.5v-16.4H276v16.4z"/>
    </clipPath>
    <clipPath>
        <path d="M305 305.7h2.2v-3H305v3z"/>
    </clipPath>
    <clipPath>
        <path d="M273.6 305h2.3v-2h-2.6v2.3z"/>
    </clipPath>
    <clipPath>
        <path d="M351 305.7h2.3v-3H351v3z"/>
    </clipPath>
    <clipPath>
        <path d="M319.7 305h2.3v-2h-2.3v2.3z"/>
    </clipPath>
    <clipPath id="y">
        <path d="M286.7 418.3H352V338h-65.3v80.3z"/>
    </clipPath>
    <clipPath id="x">
        <path d="M279.5 430.4H333v-67h-53.5v67z"/>
    </clipPath>
    <clipPath id="w">
        <path d="M279.5 430.4H352V338h-72.5v92.4z"/>
    </clipPath>
    <clipPath id="v">
        <path d="M277 433h80.5V332.4H277V433z"/>
    </clipPath>
    <clipPath id="D">
        <path d="M266.8 67.7h.8V49h-.8v18.7z"/>
    </clipPath>
    <linearGradient x2="1" gradientUnits="userSpaceOnUse" gradientTransform="matrix(0,0.1016,0.1016,0,122.0508,106.4736)">
        <stop offset="0" stop-color="#fff"/>
        <stop offset="1" stop-color="#fff"/>
    </linearGradient>
    <linearGradient id="i" x2="1" gradientUnits="userSpaceOnUse" gradientTransform="matrix(0,0.1016,0.1016,0,114.77195,107.2031)">
        <stop offset="0" stop-color="#fff"/>
        <stop offset="1" stop-color="#fff"/>
    </linearGradient>
    <linearGradient x2="1" gradientUnits="userSpaceOnUse" gradientTransform="matrix(0,0.1026,0.1026,0,119.4817,102.1494)">
        <stop offset="0" stop-color="#fff"/>
        <stop offset="1" stop-color="#fff"/>
    </linearGradient>
    <linearGradient id="h" x2="1" gradientUnits="userSpaceOnUse" gradientTransform="matrix(0,0.1006,0.1006,0,110.6245,106.4326)">
        <stop offset="0" stop-color="#fff"/>
        <stop offset="1" stop-color="#fff"/>
    </linearGradient>
    <linearGradient id="g" x2="1" gradientUnits="userSpaceOnUse" gradientTransform="matrix(0,0.1025,0.1025,0,110.6245,106.1045)">
        <stop offset="0" stop-color="#fff"/>
        <stop offset="1" stop-color="#fff"/>
    </linearGradient>
    <linearGradient id="f" x2="1" gradientUnits="userSpaceOnUse" gradientTransform="matrix(0,-0.1006,-0.1006,0,115.1721,112.2881)">
        <stop offset="0" stop-color="#fff"/>
        <stop offset="1" stop-color="#fff"/>
    </linearGradient>
    <linearGradient id="e" x2="1" gradientUnits="userSpaceOnUse" gradientTransform="matrix(0,-0.1006,-0.1006,0,115.1721,110.4473)">
        <stop offset="0" stop-color="#fff"/>
        <stop offset="1" stop-color="#fff"/>
    </linearGradient>
    <linearGradient id="d" x2="1" gradientUnits="userSpaceOnUse" gradientTransform="matrix(0,-0.1015,-0.1015,0,112.92895,111.7402)">
        <stop offset="0" stop-color="#fff"/>
        <stop offset="1" stop-color="#fff"/>
    </linearGradient>
    <linearGradient id="c" x2="1" gradientUnits="userSpaceOnUse" gradientTransform="matrix(0,-0.1036,-0.1036,0,110.614,110.5645)">
        <stop offset="0" stop-color="#fff"/>
        <stop offset="1" stop-color="#fff"/>
    </linearGradient>
    <linearGradient x2="1" gradientUnits="userSpaceOnUse" gradientTransform="matrix(0,-0.1016,-0.1016,0,123.87794,112.0977)">
        <stop offset="0" stop-color="#fff"/>
        <stop offset="1" stop-color="#fff"/>
    </linearGradient>
    <linearGradient x2="1" gradientUnits="userSpaceOnUse" gradientTransform="matrix(0,-0.1006,-0.1006,0,120.22169,111.2754)">
        <stop offset="0" stop-color="#fff"/>
        <stop offset="1" stop-color="#fff"/>
    </linearGradient>
    <linearGradient x2="1" gradientUnits="userSpaceOnUse" gradientTransform="matrix(0,-0.1035,-0.1035,0,118.59399,105.3467)">
        <stop offset="0" stop-color="#fff"/>
        <stop offset="1" stop-color="#fff"/>
    </linearGradient>
    <linearGradient x2="1" gradientUnits="userSpaceOnUse" gradientTransform="matrix(0,-0.1025,-0.1025,0,123.87794,110.2568)">
        <stop offset="0" stop-color="#fff"/>
        <stop offset="1" stop-color="#fff"/>
    </linearGradient>
    <linearGradient x2="1" gradientUnits="userSpaceOnUse" gradientTransform="matrix(0,-0.1025,-0.1025,0,123.87794,110.8711)">
        <stop offset="0" stop-color="#fff"/>
        <stop offset="1" stop-color="#fff"/>
    </linearGradient>
    <linearGradient id="b" x2="1" gradientUnits="userSpaceOnUse" gradientTransform="matrix(0.5833974,0,0,-0.5833974,99.618698,109.8325)">
        <stop offset="0" stop-color="#fff"/>
        <stop offset="1" stop-color="#fff"/>
    </linearGradient>
    <linearGradient id="a" x2="1" gradientUnits="userSpaceOnUse" gradientTransform="matrix(0.584,0,0,-0.584,98.655296,105.2451)">
        <stop offset="0" stop-color="#fff"/>
        <stop offset="1" stop-color="#fff"/>
    </linearGradient>
    <linearGradient x2="1" gradientUnits="userSpaceOnUse" gradientTransform="matrix(-0.6045696,0,0,0.6045696,309.07693,99.894051)">
        <stop offset="0" stop-color="#fff"/>
        <stop offset="1" stop-color="#fff"/>
    </linearGradient>
    <linearGradient x2="1" gradientUnits="userSpaceOnUse" gradientTransform="matrix(-0.6055353,0,0,0.6055353,305.24582,99.894051)">
        <stop offset="0" stop-color="#fff"/>
        <stop offset="1" stop-color="#fff"/>
    </linearGradient>
    <linearGradient x2="1" gradientUnits="userSpaceOnUse" gradientTransform="matrix(-0.6045696,0,0,0.6045696,309.07693,103.26125)">
        <stop offset="0" stop-color="#fff"/>
        <stop offset="1" stop-color="#fff"/>
    </linearGradient>
    <linearGradient x2="1" gradientUnits="userSpaceOnUse" gradientTransform="matrix(-0.604562,0,0,0.604562,312.31323,101.64795)">
        <stop offset="0" stop-color="#fff"/>
        <stop offset="1" stop-color="#fff"/>
    </linearGradient>
    <linearGradient x2="1" gradientUnits="userSpaceOnUse" gradientTransform="matrix(-0.6064114,0,0,0.6064114,300.73993,103.26125)">
        <stop offset="0" stop-color="#fff"/>
        <stop offset="1" stop-color="#fff"/>
    </linearGradient>
    <linearGradient x2="1" gradientUnits="userSpaceOnUse" gradientTransform="matrix(-0.604562,0,0,0.604562,312.31323,104.81155)">
        <stop offset="0" stop-color="#fff"/>
        <stop offset="1" stop-color="#fff"/>
    </linearGradient>
    <linearGradient x2="1" gradientUnits="userSpaceOnUse" gradientTransform="matrix(0,-0.1016,-0.1016,0,300.93063,109.6885)">
        <stop offset="0" stop-color="#fff"/>
        <stop offset="1" stop-color="#fff"/>
    </linearGradient>
    <linearGradient x2="1" gradientUnits="userSpaceOnUse" gradientTransform="matrix(0,-0.1006,-0.1006,0,305.71976,114.6895)">
        <stop offset="0" stop-color="#fff"/>
        <stop offset="1" stop-color="#fff"/>
    </linearGradient>
    <linearGradient x2="1" gradientUnits="userSpaceOnUse" gradientTransform="matrix(0,0.1006,0.1006,0,307.42673,112.9053)">
        <stop offset="0" stop-color="#fff"/>
        <stop offset="1" stop-color="#fff"/>
    </linearGradient>
    <linearGradient x2="1" gradientUnits="userSpaceOnUse" gradientTransform="matrix(0,0.1025,0.1025,0,304.9917,111.1172)">
        <stop offset="0" stop-color="#fff"/>
        <stop offset="1" stop-color="#fff"/>
    </linearGradient>
    <linearGradient x2="1" gradientUnits="userSpaceOnUse" gradientTransform="matrix(0,0.1015,0.1015,0,307.37399,126.1719)">
        <stop offset="0" stop-color="#fff"/>
        <stop offset="1" stop-color="#fff"/>
    </linearGradient>
    <linearGradient x2="1" gradientUnits="userSpaceOnUse" gradientTransform="matrix(0,0.1016,0.1016,0,307.37399,127.0664)">
        <stop offset="0" stop-color="#fff"/>
        <stop offset="1" stop-color="#fff"/>
    </linearGradient>
    <linearGradient x2="1" gradientUnits="userSpaceOnUse" gradientTransform="matrix(0,0.1006,0.1006,0,305.71976,112.9053)">
        <stop offset="0" stop-color="#fff"/>
        <stop offset="1" stop-color="#fff"/>
    </linearGradient>
    <linearGradient x2="1" gradientUnits="userSpaceOnUse" gradientTransform="matrix(0,0.1025,0.1025,0,305.71976,111.1172)">
        <stop offset="0" stop-color="#fff"/>
        <stop offset="1" stop-color="#fff"/>
    </linearGradient>
    <linearGradient id="E" x2="1" gradientUnits="userSpaceOnUse" gradientTransform="matrix(0.1367,0,0,-0.1367,305.6514,121.9849)">
        <stop offset="0" stop-color="#fff"/>
        <stop offset="1" stop-color="#fff"/>
    </linearGradient>
    <linearGradient x2="1" gradientUnits="userSpaceOnUse" gradientTransform="matrix(0.1367,0,0,-0.1367,303.0791,126.2905)">
        <stop offset="0" stop-color="#fff"/>
        <stop offset="1" stop-color="#fff"/>
    </linearGradient>
    <linearGradient x2="1" gradientUnits="userSpaceOnUse" gradientTransform="matrix(0.1387,0,0,-0.1387,304.80658,116.228)">
        <stop offset="0" stop-color="#fff"/>
        <stop offset="1" stop-color="#fff"/>
    </linearGradient>
    <linearGradient x2="1" gradientUnits="userSpaceOnUse" gradientTransform="matrix(0.1367,0,0,-0.1367,303.0791,116.228)">
        <stop offset="0" stop-color="#fff"/>
        <stop offset="1" stop-color="#fff"/>
    </linearGradient>
    <linearGradient x2="1" gradientUnits="userSpaceOnUse" gradientTransform="matrix(0.1377,0,0,-0.1377,303.0791,119.4277)">
        <stop offset="0" stop-color="#fff"/>
        <stop offset="1" stop-color="#fff"/>
    </linearGradient>
    <linearGradient x2="1" gradientUnits="userSpaceOnUse" gradientTransform="matrix(0.1367,0,0,-0.1367,303.0791,112.95605)">
        <stop offset="0" stop-color="#fff"/>
        <stop offset="1" stop-color="#fff"/>
    </linearGradient>
    <linearGradient x2="1" gradientUnits="userSpaceOnUse" gradientTransform="matrix(0.1377,0,0,-0.1377,304.9639,122.8403)">
        <stop offset="0" stop-color="#fff"/>
        <stop offset="1" stop-color="#fff"/>
    </linearGradient>
    <linearGradient x2="1" gradientUnits="userSpaceOnUse" gradientTransform="matrix(0.1367,0,0,-0.1367,303.0791,122.8403)">
        <stop offset="0" stop-color="#fff"/>
        <stop offset="1" stop-color="#fff"/>
    </linearGradient>
    <linearGradient x2="1" gradientUnits="userSpaceOnUse" gradientTransform="matrix(0.1367077,0,0,-0.1367077,304.73828,127.1172)">
        <stop offset="0" stop-color="#fff"/>
        <stop offset="1" stop-color="#fff"/>
    </linearGradient>
    <linearGradient x2="1" gradientUnits="userSpaceOnUse" gradientTransform="matrix(-0.1356924,0,0,0.1356924,300.88669,119.5171)">
        <stop offset="0" stop-color="#fff"/>
        <stop offset="1" stop-color="#fff"/>
    </linearGradient>
    <linearGradient x2="1" gradientUnits="userSpaceOnUse" gradientTransform="matrix(-0.1377,0,0,0.1377,300.31351,124.6328)">
        <stop offset="0" stop-color="#fff"/>
        <stop offset="1" stop-color="#fff"/>
    </linearGradient>
    <linearGradient x2="1" gradientUnits="userSpaceOnUse" gradientTransform="matrix(-0.1377,0,0,0.1377,300.94339,122.8403)">
        <stop offset="0" stop-color="#fff"/>
        <stop offset="1" stop-color="#fff"/>
    </linearGradient>
    <linearGradient x2="1" gradientUnits="userSpaceOnUse" gradientTransform="matrix(-0.1367,0,0,0.1367,300.5986,127.1172)">
        <stop offset="0" stop-color="#fff"/>
        <stop offset="1" stop-color="#fff"/>
    </linearGradient>
    <linearGradient x2="1" gradientUnits="userSpaceOnUse" gradientTransform="matrix(0,0.2852,0.2852,0,305.41745,128.85741)">
        <stop offset="0" stop-color="#fff"/>
        <stop offset="1" stop-color="#fff"/>
    </linearGradient>
    <linearGradient x2="1" gradientUnits="userSpaceOnUse" gradientTransform="matrix(0,0.2852,0.2852,0,301.18015,127.2207)">
        <stop offset="0" stop-color="#fff"/>
        <stop offset="1" stop-color="#fff"/>
    </linearGradient>
    <clipPath id="z">
        <path d="M277 433h80.5V332.4H277V433z"/>
    </clipPath>
    <clipPath id="A">
        <path d="M279.5 430.4H352V338h-72.5v92.4z"/>
    </clipPath>
    <clipPath id="B">
        <path d="M279.5 430.4H333v-67h-53.5v67z"/>
    </clipPath>
    <clipPath id="C">
        <path d="M286.7 418.3H352V338h-65.3v80.3z"/>
    </clipPath>
</defs>
<path fill="#0095eb" d="M550 274.3H0V0h550v274.3z"/>
<g class="employer-left-arm">
    <path fill="#b5ccf9" d="M150.5 155.5c2.2 3.8 9.7-1.3 13.3-4 3.5-2.7 13-11.5 13-11.5l-2.6-4-21 12.6c-1 .7-4.8 3-2.7 7"/>
    <path fill="#ffa47c" d="M175.2 140.5s2-1.5 3.3-2c1.4-.7 5.5-2 5.8-3 .4-1-3.3-3-5.7-2-2.5 1.2-7.2 5-7.2 5l4 2z"/>
    <path fill="#b5ccf9" d="M139.8 125.8c-4 1.2-4 4.8-2.6 8.5 1.5 3.6 11.7 21 14 21.4 1.3.3 6-.8 6-2.7 0-1.8-7.6-18-9.3-21-1.7-2.6-3.7-7.6-8.2-6.2"/>
    <path fill="#ffbd95" d="M178.6 138.4s1.5 0 3.4-.4h.7l.6-.3h.5l.6-.3h.5c.6-.2.5-.6.6-.6l.8-.3c.6-.3 1.4-2.4 1.5-2.7 0-.4.7-2.4.5-2.5-.2-.2-1 0-1.5 1l-1.2 2c0-.2 0-1.6-.3-2.3 0-.4-.5-.3-.8-.2-.2 0-.5 1-.5 1s-.6-.5-.8-.4c-.6.3-.6 1-.7 1.4 0 .2-.5-.6-.7-.5-.8.5-.3 2.8-1.2 2.8-.5 0-2.3 1-2.2 2.4"/>
    <path fill="#cee0ff" d="M178 140.3l-3.8 2.5-3.3-5 3.6-2.4 3.3 5z"/>
</g>
<path fill="url(#a)" d="M98.7 105h.5v.5h-.5v-.5z" transform="matrix(0.55000001,0,0,0.54866789,136.36799,125.52953) matrix(1.6866819,0,0,-1.6866819,-121.26797,230.05059)"/>
<path fill="url(#b)" d="M99.6 109.6h.6v.5h-.6v-.3z" transform="matrix(0.55000001,0,0,0.54866789,136.36799,125.52953) matrix(1.6866819,0,0,-1.6866819,-121.26797,230.05059)"/>
<path fill="url(#c)" d="M110.4 110.5h.4-.4z" transform="matrix(0.55000001,0,0,0.54866789,136.36799,125.52953) matrix(1.6866819,0,0,-1.6866819,-121.26797,230.05059)"/>
<path fill="url(#d)" d="M112.8 111.6h.3z" transform="matrix(0.55000001,0,0,0.54866789,136.36799,125.52953) matrix(1.6866819,0,0,-1.6866819,-121.26797,230.05059)"/>
<path fill="url(#e)" d="M115 110.3h.3-.3z" transform="matrix(0.55000001,0,0,0.54866789,136.36799,125.52953) matrix(1.6866819,0,0,-1.6866819,-121.26797,230.05059)"/>
<path fill="url(#f)" d="M115 112.2h.3-.3z" transform="matrix(0.55000001,0,0,0.54866789,136.36799,125.52953) matrix(1.6866819,0,0,-1.6866819,-121.26797,230.05059)"/>
<path fill="url(#g)" d="M110.5 106h.3v.2h-.3z" transform="matrix(0.55000001,0,0,0.54866789,136.36799,125.52953) matrix(1.6866819,0,0,-1.6866819,-121.26797,230.05059)"/>
<path fill="url(#h)" d="M110.5 106.4h.3-.3z" transform="matrix(0.55000001,0,0,0.54866789,136.36799,125.52953) matrix(1.6866819,0,0,-1.6866819,-121.26797,230.05059)"/>
<path fill="url(#i)" d="M114.6 107.2h.3-.5z" transform="matrix(0.55000001,0,0,0.54866789,136.36799,125.52953) matrix(1.6866819,0,0,-1.6866819,-121.26797,230.05059)"/>
<path fill="#cec6b7" d="M166.5 157.6h9.2c.4 0 .7-.4.7-.7v-11c0-.3-.3-.6-.7-.6h-9.2c-.4 0-.7.3-.7.7V157c0 .4.3.8.7.8"/>
<path fill="#cec6b7" d="M165.4 149c-1.8 0-3.2 1.4-3.2 3 0 2 1.3 3.3 3 3.3h2c1.6 0 3-1.4 3-3.2 0-1.6-1.3-3-3-3h-2zm-4.7 3c0-2.4 2-4.5 4.7-4.5h1.8c2.4 0 4.5 2.2 4.5 4.7s-2 4.5-4.6 4.5h-1.7c-2.5 0-4.6-2-4.6-4.5"/>
<path fill="#d8d2ca" d="M169 157.6h4.2c.2 0 .3-.4.3-.7v-11c0-.3 0-.6-.3-.6H169c-.2 0-.3.3-.3.7V157c0 .4 0 .8.3.8"/>
<ellipse cx="17.1" cy="114.8" fill="#fff" ry="14.9" rx="5.8"/>
<path fill="#b395dd" d="M550 207.3H0V275h550v-67.7z"/>
<path fill-opacity=".2" d="M511.6 235.3c0 10.4-106.3 19-237.3 19S37 245.7 37 235.3c0-10.6 106-19 237.3-19 131 0 237.3 8.4 237.3 19"/>
<path fill="#fff" d="M0 202.8h550v4.5H0z"/>
<path fill="#fff" d="M20 153.8h21.3c5.3 0 9.4 4.4 9.4 9.4V211c0 1-1 2-2 2H12.4c-.8 0-1.8-1-1.8-2v-47.8c0-5 4.2-9.3 9.4-9.3"/>
<path fill="#5e7d2c" d="M88.5 127.3c2-4.6 4.4-9.2 7-13.5h.3c.2 0 .4 0 .5.2l6.6 6c-2-3-4.3-5.5-7-7.7-6.4 8.5-11 18.4-13.5 28.4.5 0 1.2 0 1.6.6l2.3-7c.7-2.2 1.4-4.7 2.3-7"/>
<path fill="#43591f" d="M83.6 140.3c-.4.6.3 1 .8.6 3-2.3 4.3-7.2 6.4-10.3 2.4-3 5.3-5.7 6-9.5l7.8 8c-2-4-4.8-7.4-8.3-10.4-5 6.4-7.2 12-12.7 21.5"/>
<path fill="#603813" d="M78.7 214h8.8c2 0 3.5-.8 4.6-2 4.5-5.6 6.7-15.7 7.5-28H67c.3 12.5 2.4 22.2 7.5 28 1 1.2 2.7 1.8 4.3 1.8"/>
<path fill="#874e1a" d="M95.3 184c-.7 14.2-2.7 25-7 30H86c2.8-5 4-15.8 4.5-30h4.7z"/>
<path fill="#534741" d="M67 184c0 .5 7.3 1 16.2 1 9 0 16.3-.5 16.3-1 0-.4-7.2-.8-16.2-.8s-16.3.4-16.3.8"/>
<path fill="#8f7a63" d="M78 184c1 .5 9.3.5 10 0v-.6c0-.2 0-.3-.3-.5v-.7l-.6-5.5v-3.5l-.7-4.4c0-1.3 0-2.4-.2-3.6v-2l-.2-2.2v-3c-.2-1-.2-2-.2-3v-7.7c0-2.4 0-4.8.2-7 0-1.3-1.5-2.2-2.7-2.5-1-.3-2.3 0-3 1-.7 1-.7 2.3-.7 3.6v1l.3 3.4v17c0 .3 0 .8-.3 1.3v2.3L79 173v1.5l-.4 3.6v2l-.2.6c0 .8 0 1.7-.2 2.4v.6c0 .3-.3.5 0 .5"/>
<path fill="#735227" d="M78.3 179.4c2.5-.2 6.8-1.3 8.8-2.6l.7 5.5c-1.8 0-6.4-1.4-9.3-2.3v-.5zm8.5-5.3c-4 0-6.5-.6-8-1.2l.3-5.2c2 1.8 5.7 4.6 7.6 6v.6zm-7.7-8.7c1.8 0 4.2-.4 7-1.6 0-1 0-1.8-.2-2.6v-1c-1.8 1-4.8 2.8-6.4 4 0 .3 0 .7-.2 1.2m6.5-6.7c-1.4.4-4.4.4-6.3-.2v-3.8c2 .8 4.8 2.7 6.5 3.6v.4zm-6-6.3c1.7-.7 4.3-1 6-2v1.8c-2 .7-4.2 1-6.3 1v-.6zm-.4-8.5l.2 3.4c1.8 1.2 4.8 2 6.2 1.7v-1.2c-1.4-1-4.4-2.3-6.5-3.8"/>
<path fill="#b8a372" d="M79.4 149.5l1.3.7 2.2.2h1.3c.4-.2 1-.4 1.2-.7v-.6H84c-1.5.3-3.2.4-4.7 0v.4zm0 4.3c.4.4.8.5 1.2.6 1.6.5 3.3 1 5 .7v-1.5h-.3c-1 0-2 .5-3 .6-1 .3-2 0-2.7-.3zm6.4 6l-3.6 1c-.6 0-1.2 0-1.8.3l-1 .4v-2.7c.6.4 1.3.5 2 .7 1.4.3 3 0 4.5 0v.3zm-6.6 6.3c1.8.4 4 0 6-.3.2 0 .6 0 1-.2 0 1 0 2.2.2 3.4-2.4-.5-4.8-2-7.2-2.8zm7.8 9.7c-.6.6-1.5.7-2.2.8-1 .2-2.4.3-3.7.7l-2.4 1c0-1.4 0-2.6.2-3.7 1 .4 2.3.6 3.5.6 1.7 0 3-.3 4.6 0v.7zm-8.7 4.6c1.5.4 2.7 1.2 4 1.7l2.3.4c1 0 2 .2 3 .4v.6h-1c-1.4 0-3 0-4.5-.2-1.3 0-2.7 0-4-.4v-2.5z"/>
<path fill="#43591f" d="M75 124.5c1 4 1.6 8 3 12 .6 1.7.7 4.4 2.7 4.6 1.3.3 4.4.7 5-.6 4-8.2 8-21.5 12.7-32.2l3.7-8c-3.5 3.3-4.8 8.3-7.5 12.7-.7 1-1.5 2-2 3.4-.4 1-.4 2.3-.8 3.5-.3 1.7-1.3 3.5-2 5-2.2 4.5-3.4 9.2-4.6 13.8 2.7-15.5 8.5-30.6 9-46.2L88 115c-1 2.8-1.5 6-2 9l-.8 4.8-1 8c0-14.6-.2-29.2-2.8-43.4-1.8 14.7 1.3 29.7.5 44.5 0-2.5-1-4.7-1.6-7-.4-1.8-.4-3.6-.5-5.5-.6-9-2.3-17.7-5-26-.3 3 .2 6.4.5 9.4l2.8 20c.7 3.7 1 7.3 2.2 10.8-2.2-12.6-4.2-25.4-10.3-36.5l4.5 21.4"/>
<path fill="#6c8e20" d="M76.4 101.2c.6 4 2 7.8 2.8 11.7 2 8.7 2.3 18 2.5 27 2-6 1.3-12.8.8-19l-.8-6c-.6-2.5-1.2-5-2-7.4l-4-17.3c0 3.6 0 7.2.7 11"/>
<path fill="#325e00" d="M82 136.5c.5-5-.8-10-2.4-15-1.6-4.7-3.7-9.5-5-14.4-1-3.7-1.2-7.6-1.5-11.4-1.4 3.3-.4 7.3.7 10.7l5.5 18.6c1.3 3.8 2.4 7.6 2.8 11.4"/>
<path fill="#344518" d="M75.3 122.2c-1-3.7-2.3-7.4-3.8-11-.5-1-1-1.6-1.7-2-1-1-2.7-.7-3.8-.5-6.5 1.3-13 2.6-18.6 5.5 7-1.8 13.7-2.7 21-3.5 3.5 10 7.8 19.2 12.6 28.5-.2-2.7-1-5.2-1.8-7.6-.7-1.4-1.5-2.8-2-4.2-.8-1.8-1.2-3.6-2-5.4"/>
<path fill="#6c8e20" d="M73.3 111.8c-.7-1-1.8-2-3-1.6-.5 0-1 .2-1.3.4-4.4 2-8.6 4.2-12.4 7 1-1 2.3-1 3.5-1.4 3.5-1 6.8-2 9.8-3.8 5 8.6 9.3 17.5 13.2 26.8-2-7.5-4.6-15-7.4-22.3-.5-2-1.2-3.8-2.4-5.2"/>
<path fill="#5a751b" d="M83 89.4c-3 17 0 34.2-1.2 51.2l1.8-6.8c.4-2 1.3-3.5 1-5.3-1.2-14-2.3-26.6-1.7-39"/>
<path fill="#6c8e20" d="M86.3 130c2-4.8 2.8-10 3.8-15 1.5-8.5 10.5-17 12-25.7-4 16.5-15.4 33-19.4 49.2 0 .3-.2 1 0 1 .2.5 1 .7 1 .3 0-3.6 1.6-7 3-10.2"/>
<path fill="#6c8e20" d="M85 110l2.5-17c.2-1.7.5-3 1.4-4.2l-5.6 51c-.4 0-1 0-1.3-.3 0-6.3 2.8-12.8 2.8-19.3 0-2-.3-3.7-.3-5.5 0-1.7.3-3.2.6-5"/>
<path fill="#5a751b" d="M82.3 140c4.8-12.8 4.6-27 7.2-40.7 1.4 2 3.5 3.7 5.7 5-1.7-3.2-4-6-6.6-8-2.7 14.6-5.2 29.2-6 44"/>
<path fill="#536e26" d="M83 137.8c0 .6.2 1.4 0 2 0 .8-.4 1.5-1 1.6-2-8.6-1.4-17.8-3.7-26.3-.7 2.7-1 5.3-1.5 7.8 0-3.3.4-7 1-10.4 2.3 3.6 3 8.2 3.4 12.6.4 4.4.6 8.8 1.7 13"/>
<path fill="#5e7d2c" d="M69 116.3l-2 4.6c-.8 2-1.7 4-2 6 2-4 4.3-7.8 6.7-11.6 2 3.7 3.7 7.3 4.6 11 .8 2.5 1 4.8 1.7 7 .5 2.5 1.3 5 2.3 7.2 0 .2.2.3.4.3s.5-.2.5-.4c.2-.3 0-.5 0-.8l-1.8-7.2c-1-5-2.3-9.5-4.3-13.8-.8-2-1.8-3.7-3-5.5v-.2c-.4 0-.4 0-.5.3-1 .8-1.6 1.7-2 2.8"/>
<path fill="#536e26" d="M71 123.3l5.6-.7h.8c.2 0 .2.3.3.5.5 1 .8 2.3 1 3.4 1 4.5 1.8 9.3 2.6 14 .2 0 .5 0 .7-.4v-.5l-1.6-9.3c-.5-2.7-1-5.4-1.8-8.2 0-.3-.2-.5-.4-.6h-.5c-1 .5-2.4.5-3.6.5-1 0-2.3.3-3 1.3"/>
<path fill="#5e7d2c" d="M80 140c-1.7-3-4.5-5.6-7.2-7.4-1-.8-2-1.4-3-1.4-.8 0-1.4.3-2 .6-2.5.8-5 2.4-6.6 4.5 0-2 1.8-3.3 3.4-4.3 2-1 3.6-2 5.5-2.4h1c.5 0 .8.3 1.2.6 3 2.7 6 5.5 8.5 8.7.4.4 1 1 1 1.7-.8 0-1-.5-1.6-1"/>
<path fill="#5a751b" d="M85 140c.6-.3 1.3-.5 2-.6 1.2-.5 2.5-1 3.6-1.7.8-.5 1.7-1.4 2.6-1 .5 0 1 .6 1.3 1l1.8 3c.4-1.6 0-3.3-1.2-4.3-1-1-2.7-1.5-4.2-1-2 .3-3.3 2-5 3-.2.2-.5.4-1 .5l-2 1v1c.3.2 1 .2 1.3 0 .4 0 .8-.5 1.2-.7"/>
<path fill="#e8e8e8" d="M21 174.6h19.2c2.8 0 5-2 5-4.8v-5.3c0-2.8-2.2-4.8-5-4.8h-19c-3 0-5 2.2-5 4.8v5.3c0 2.8 2 4.8 4.8 4.8"/>
<path fill="#fff" d="M36 169.7h2.3v-6c0-.6-.3-1-.7-1h-1c-.3 0-.7.4-.7 1v6z"/>
<path fill="#e30000" d="M36 165h2.3v-1.3H36v1.3z"/>
<path fill="#fff" d="M25.3 169.7H23v-6c0-.6.3-1 .7-1h1c.3 0 .6.4.6 1v6z"/>
<path fill="#0071bc" d="M25.3 165H23v-1.3h2.4v1.3z"/>
<path fill="#6da0bd" d="M23.7 151h13.8c1 0 1.6.6 1.6 1.5v1.4H22.4v-1.4c0-1 .5-1.6 1.5-1.6"/>
<path fill="#7fbadb" d="M14.3 123c0 1.4 1.5 2.3 2.7 1.5l.7-.4c2.2-1.3 3.7-3.6 3.7-6.3v-6.2c0-2.5-1.6-5-3.8-6.3l-.7-.6c-1.4-.5-2.8.2-2.8 1.5v17zm-.6-39.4h34c2.4 0 4.5 2 4.5 4.5v55c0 3-7 6-14.3 8H23.3c-6-1.4-14.3-5.2-14.3-8V88.2c0-2.7 2-4.6 4.6-4.6"/>
<path fill="#85c3e6" d="M43 144.7h1c1.6 0 3-1.3 3-3v-52c0-2-1.3-3.2-3-3.2h-1c-2 0-3.2 1.3-3.2 3v52.2c0 1.6 1.4 3 3.2 3"/>
<path fill="#76adcc" d="M12.5 86h4.7c1 0 2 1 2 2v18.4l-1.5-1.2-.7-.6c-1.4-.5-2.8.2-2.8 1.5v17c0 1.3 1.4 2 2.8 1.4l.5-.5 1.5-1.3V142c0 1-1 2-1.8 2h-5c-1 0-1.7-1-1.7-2V87.7c0-.8.7-1.8 1.8-1.8"/>
<g clip-path="url(#j)" transform="matrix(0.55000001,0,0,0.54866789,136.36799,125.52953) matrix(-2.4270112,0,0,-2.4270063,992.32213,798.13366)" opacity=".5">
    <path fill="#76adcc" d="M504.7 351.8h-33.3c-.5 0-1 .4-1 1v3.4c0 .5.5 1 1 1h33.3c.5 0 1-.5 1-1v-3.5c0-.5-.5-1-1-1"/>
</g>
<g clip-path="url(#k)" transform="matrix(0.55000001,0,0,0.54866789,136.36799,125.52953) matrix(-2.4270112,0,0,-2.4270063,992.32213,798.13366)" opacity=".5">
    <path fill="#76adcc" d="M504 316.7h-32c-1 0-1.7.7-1.7 1.7v2c0 .8.8 1.6 1.7 1.6h32c.8 0 1.6-.8 1.6-1.7v-2c0-1-.8-1.6-1.7-1.6"/>
</g>
<path fill="#b1daf2" d="M8.4 88h44.4c.8 0 1.3.5 1.3 1v1c0-.6-.4-1-1-1H8.4c-.6 0-1.2.4-1.2 1v-.8c0-.8.6-1.3 1.2-1.3m1 46.5H52c1.5 0 2.5 1 2.5 2.4v.8c0-1.2-1-2.2-2.4-2.2H9.5c-1.3 0-2.2 1-2.2 2.4v-1c0-1.2.8-2 2.2-2"/>
<path fill="#e3ab43" d="M477.6 38.6H539v185.7h-61.4V38.6z"/>
<path fill="#ab731b" d="M535 42.4h-53.4v178H535v-178z"/>
<path fill="#de6567" d="M481.6 54h8.3V89h-8.4V54z"/>
<path fill="#fff" d="M482.5 82.7h6.4v3.6h-6.5v-3.6z"/>
<g fill-opacity=".1" transform="matrix(0.55000001,0,0,0.54866789,136.36799,125.52953) matrix(-2.4270112,0,0,-2.4270063,1730.3222,798.13366)" clip-path="url(#l)">
    <path d="M454.3 382.7l-6.2-26.5h6.5v26.5z"/>
</g>
<path fill="#de6567" d="M490.8 54h8.2V89h-8.2V54z"/>
<path fill="#fff" d="M491.7 82.7h6.4v3.6h-6.3v-3.6z"/>
<g fill-opacity=".1" transform="matrix(0.55000001,0,0,0.54866789,136.36799,125.52953) matrix(-2.4270112,0,0,-2.4270063,1730.3222,798.13366)" clip-path="url(#m)">
    <path d="M447.5 382.7l-6.2-26.5h6.2v26.5z"/>
</g>
<path fill="#3f8bb3" d="M500 54h8.2V89H500V54z"/>
<path fill="#fff" d="M501 82.7h6.5v3.6H501v-3.6z"/>
<g fill-opacity=".1" transform="matrix(0.55000001,0,0,0.54866789,136.36799,125.52953) matrix(-2.4270112,0,0,-2.4270063,1730.3222,798.13366)" clip-path="url(#n)">
    <path d="M440.6 382.7l-6.3-26.5h6.3v26.5z"/>
</g>
<path fill="#3f8bb3" d="M481.6 104h8.8v37.2h-8.8V104z"/>
<path fill="#fff" d="M482.5 106h7v14.6h-7v-14.8z"/>
<g fill-opacity=".1" transform="matrix(0.55000001,0,0,0.54866789,136.36799,125.52953) matrix(-2.4270112,0,0,-2.4270063,1730.3222,798.13366)" clip-path="url(#o)">
    <path d="M454.3 345.3l-6.6-28h6.6v28z"/>
</g>
<path fill="#4d4d4d" d="M483.4 136.5c0 1.3 1 2.4 2.6 2.4 1.4 0 2.6-1.2 2.6-2.7 0-1.5-1.2-2.7-2.6-2.7-1.4 0-2.7 1.2-2.7 2.7"/>
<path fill="#d6c489" d="M486 134c1 0 2.2 1 2.2 2.3 0 1-1 2-2 2-1.4 0-2.3-1-2.3-2 0-1.3.8-2.3 2-2.3m0 5.2c1.8 0 3-1.4 3-3 0-2-1.3-3.2-3-3.2-1.8 0-3 1.4-3 3 0 1.5 1.2 3 3 3"/>
<path fill="#4d4d4d" d="M483.2 108.4h5.5v-1h-5.5v1zm0 2h5.5v-.8h-5.5v.8zm0 2.2h5.5v-1h-5.5v1z"/>
<path fill="#de6567" d="M499.5 104h8.8v37.4h-8.7V104z"/>
<path fill="#fff" d="M500.5 106h7v14.7h-7V106z"/>
<g fill-opacity=".1" transform="matrix(0.55000001,0,0,0.54866789,136.36799,125.52953) matrix(-2.4270112,0,0,-2.4270063,1730.3222,798.13366)" clip-path="url(#p)">
    <path d="M441 345.2l-6.7-28h6.6v28z"/>
</g>
<path fill="#4d4d4d" d="M501.3 136.5c0 1.4 1 2.7 2.6 2.7 1.4 0 2.5-1.3 2.5-2.7 0-1.4-1-2.5-2.6-2.5-1.4 0-2.7 1-2.7 2.5"/>
<path fill="#d6c489" d="M504 134.3c1 0 2 1 2 2.2 0 1.3-.8 2.2-2 2.2s-2.2-1-2.2-2c0-1.2 1-2.2 2-2.2m0 5.2c1.7 0 3-1.4 3-3 0-1.7-1.3-3-3-3-1.6 0-3 1.4-3 3 0 2 1.4 3 3 3"/>
<path fill="#4d4d4d" d="M501 108.5h5.6v-1H501v1zm0 2.2h5.6v-1H501v1zm0 2h5.6v-1H501v1z"/>
<path fill="#31a81d" d="M490.4 104h8.8v37.2h-8.8V104z"/>
<path fill="#fff" d="M491.3 106h7v14.6h-7v-14.8z"/>
<g fill-opacity=".1" transform="matrix(0.55000001,0,0,0.54866789,136.36799,125.52953) matrix(-2.4270112,0,0,-2.4270063,1730.3222,798.13366)" clip-path="url(#q)">
    <path d="M447.7 345l-6.6-28h7v28z"/>
</g>
<path fill="#4d4d4d" d="M492.2 136.5c0 1.3 1 2.4 2.6 2.4 1.5 0 2.6-1.2 2.6-2.7 0-1.5-1-2.7-2.6-2.7-1.4 0-2.5 1.2-2.5 2.7"/>
<path fill="#d6c489" d="M494.8 134c1.2 0 2.2 1 2.2 2.3 0 1-1 2-2.2 2-1 0-2-1-2-2 0-1.3.8-2.3 2-2.3m0 5.2c1.8 0 3-1.4 3-3 0-2-1.3-3.2-3-3.2-1.6 0-3 1.4-3 3 0 1.5 1.5 3 3 3"/>
<path fill="#4d4d4d" d="M492 108.4h5.6v-1H492v1zm0 2h5.6v-.8H492v.8zm0 2.2h5.6v-1H492v1z"/>
<path fill="#e3ab43" d="M477.6 93.7H539V89h-61.4v4.7zm0 52H539V141h-61.4v4.6z"/>
<path fill="#f0bb59" d="M481.6 145.6H535v75h-53.4v-75z"/>
<g fill-opacity=".1" transform="matrix(0.55000001,0,0,0.54866789,136.36799,125.52953) matrix(-2.4270112,0,0,-2.4270063,1730.3222,798.13366)" clip-path="url(#r)">
    <path d="M415 313h39.3v.7h-40v-56h.8V313z"/>
</g>
<g fill-opacity=".1" transform="matrix(0.55000001,0,0,0.54866789,136.36799,125.52953) matrix(-2.4270112,0,0,-2.4270063,1730.3222,798.13366)" clip-path="url(#s)">
    <path d="M421.5 307.2c0-1-.8-1.8-1.8-1.8s-1.8.8-1.8 1.8.5 1.8 1.5 1.8 1.8-.8 1.8-1.8"/>
</g>
<path fill="#ccc" d="M526.5 153.2c0 1.4 1 2.5 2.5 2.5 1.2 0 2.3-1 2.3-2.4 0-1.2-1-2.3-2.3-2.3-1.5 0-2.5 1-2.5 2.3"/>
<path fill="#f2f2f2" d="M528.4 152.4c0 .8.6 1.3 1.3 1.3.7 0 1.2-.6 1.2-1.3 0-.8-.6-1.3-1.3-1.3-.7 0-1.2.6-1.2 1.3"/>
<path fill="#8a312d" d="M515 89h4V56.7H515V89z"/>
<g transform="matrix(0.55000001,0,0,0.54866789,136.36799,125.52953) matrix(-2.4270112,0,0,-2.4270063,1730.3222,798.13366)" clip-path="url(#t)" opacity=".5">
    <path fill="#dbddd0" d="M428.6 370H427v6.8h1.6v-7z"/>
</g>
<g transform="matrix(0.55000001,0,0,0.54866789,136.36799,125.52953) matrix(-2.4270112,0,0,-2.4270063,1730.3222,798.13366)" clip-path="url(#u)" opacity=".5">
    <path fill="#dbddd0" d="M429.3 359.3h-3v1.4h3v-1.4z"/>
</g>
<path fill="#464740" d="M519.2 89h2.2V54.8h-2.2V89z"/>
<path fill="#5f6158" d="M519.5 89h1.4V54.8h-1.6V89z"/>
<path fill="#ffb65e" d="M521.4 89h7V56.4h-7V89z"/>
<path fill="#e88200" d="M521.4 89h7V79h-7v10zm0-30h7v-.7h-7v.6z"/>
<path fill="#d4ae81" d="M523.6 77.5h3v-18h-3v18z"/>
<path fill="#29abe2" d="M528.7 89h2V59.4h-2V89z"/>
<path fill="#ffe099" d="M535 89h-4.6V55.6h4.6V89z"/>
<path fill="#fcc03a" d="M535 87h-4.6v-1.5h4.6v1.3zm0-28h-4.6v-3.5h4.6V59z"/>
<g>
    <path fill="#fff" d="M286.6 149.3c0 1-1 2-2.2 2h-15c-1.2 0-2-1-2-2 0-1.2.8-2 2-2h15c1.2 0 2.2.8 2.2 2"/>
    <path fill="#fff" d="M278.8 177H275v-27.7h3.8V177z"/>
    <path fill="#ddd7d7" d="M301.2 176.4c.3 1-.2 2.8-1 2.8h-46.4c-1 0-1.5-1.7-1-2.8l2.5-6c.3-1 1.4-2 2.3-2H296c1.2 0 2.2 1 2.6 2l2.6 6z"/>
    <path fill="#f2f2f2" d="M301.2 175.3c.3 1-.2 2-1 2h-46.4c-1 0-1.5-1-1-2l2.5-5.6c.3-1 1.4-1.8 2.3-1.8H296c1.2 0 2.2.8 2.6 1.8l2.6 5.6z"/>
    <path fill="#f5f3f3" d="M298.5 154.3c.4 1.5-.8 2.7-2.8 2.7h-37.5c-2 0-3.3-1.2-2.8-2.7l3.6-13c.5-1.3 2.4-2.6 4.4-2.6h27c2 0 3.8 1.3 4.4 2.7l3.7 13z"/>
    <path fill="#ece7e7" d="M298.5 155.7c.4 1.5-.8 2.7-2.8 2.7h-37.5c-2 0-3.3-1.2-2.8-2.7L259 143c.6-1.6 2.5-2.8 4.5-2.8h27c1.8 0 3.7 1.2 4.3 2.7l3.7 12.7zM257 226.5h-3.5L258 179h3.3zM299.3 227.5H296l-3.4-48.3h3.3z"/>
    <path fill="#c3996b" d="M287.2 119.5c0 5.8-4.8 10.4-10.6 10.4s-10.4-4.7-10.4-10.5c0-6 4.6-10.5 10.4-10.5 5.8 0 10.6 4.6 10.6 10.4"/>
    <path fill="#f5a372" d="M281.6 125c.7 1 4.6 1.4 4.6 1.4l-2.8 6-6.6 6.5v-16.5l4-2.5s0 4 .7 5M272 125c-.7 1-4.6 1.4-4.6 1.4l2.7 6 6.7 5.5v-15.6l-4-2.4s0 4-.6 5"/>
    <path fill="#e6854f" d="M272.8 121c0 2.3 1.6 4 3.8 4 2.2 0 4-1.7 4-4 0-2-1.8-3.7-4-3.7-2 0-3.8 1.8-3.8 3.8"/>
    <path fill="#7f7373" d="M291 175c2.7 0 1.2-7.3.7-10-.6-4-7.7-14.7-14.8-14.7-7 0-14 10.7-14.7 14.6-.6 2.7-3 10 .7 10h28z"/>
    <path fill="#f5a372" d="M276.6 194.8l-2.2 16.5v6.2l-1.6 3-6.4-.2s2.3-2.8 2.6-6.3c.5-6.7-3-18.4-3.2-25 0-3.2 1.7-12.6 1.7-12.6l-1.2-1.4c0-2.6 6.4-4.8 9.7-1.5 1 1 .2 3.4.2 3.4l-.8 2.5 1.4 15.4z"/>
    <path fill="#231f20" d="M274.4 217.5l-1 6.5H264s1.4-3.2 2.4-3.7c1.4-.7 6.6 0 6.6 0l1.5-2.8z"/>
    <path fill="#f5a372" d="M276.6 194.8l2.3 16.5-.2 6.2 1.8 3 6.3-.2s-2.4-2.8-2.6-6.3c-.5-6.7 3-18.4 3.2-25 0-3.2-1.7-12.6-1.7-12.6l1-1.4c0-2.6-6.2-4.8-9.5-1.5-1 1-.3 3.4-.3 3.4l1 2.5-1.5 15.4z"/>
    <path fill="#231f20" d="M278.8 217.5l1 6.5h9.6s-1.5-3.2-2.5-3.7c-1.5-.7-6.6 0-6.6 0l-1.6-2.8z"/>
    <path fill="#e6854f" d="M266.2 175l1.3 1.4-.8 4.4h8.7l-.2-1.3 1-2.6s.7-2.6-.3-3.6c-3.4-3.3-9.7-1-9.7 1.6m21 0c0-2.6-6.4-4.8-9.7-1.5-1 1-.3 3.4-.3 3.4l1 2.5-.3 1.4h8.5l-.7-4.6 1.3-1.4"/>
    <path fill="#665c5c" d="M267.8 153c.2-1-3.3-13.3-3.3-13.3l-3-11.4 8-2.3 7.4 24.4-1.7 16s-8.3 2.3-14.3-1.2c3-8.8 7-12.3 7-12.3"/>
    <path fill="#665c5c" d="M286 153c0-1 3.4-12 3.4-12l3.2-12.7-8.3-2.3-7.5 24.4 2 16s8 2.3 14-1.2c-3-8.8-6.8-12.3-6.8-12.3"/>
    <path fill="#ece7e7" d="M275.2 141.2l2.2 7.6 7-22.7-9.2 15.2z"/>
    <path fill="#fff" d="M279.4 142.2l-2.5 8.2-7.4-24.3 9.8 16.2z"/>
    <path fill="#7f7373" d="M299 155.3l-1.7 1.4-16.8 5.3-1-7 11-4-2-7.3 4-15.5 1.2 1 5.2 26zM255.2 155.3l1.5 1.4 16.8 5.3 1-7-11-4 2.2-7.4-4.2-15.4-1 1-5.3 26z"/>
    <path fill="#e58e53" d="M269.3 111.8c.4 1 .3 2.2-.3 2.5-.6.3-1.4-.6-1.8-1.7-.4-1-.3-2.2.3-2.4.6-.3 1.5.5 2 1.6M284.3 111.8c-.5 1-.3 2.2.3 2.5.5.3 1.4-.6 1.8-1.7.4-1 .3-2.2-.3-2.4-.5-.3-1.4.5-1.7 1.6"/>
    <path fill="#f5a372" d="M276.6 100.6h.5c7.5 0 8.2 5 8.2 11s-5.7 10.8-8.4 10.8c-2.8 0-8.4-5-8.4-10.8 0-6 1-11 8.3-11"/>
    <path fill="#e6854f" d="M268.6 114.7c2-.8 1.3-2.2 1.6-4 0-.8-.6-1.5-.3-2.3 0-.5 1.6-.5 1.7-1 .6-1.8-.3-3 1-4 .7-.6 3 .4 4.4-1 .4 2.3 2 1.2 3 2.5l1.5 3.2c.7 1.6 1 5.6 3 6.6-.6-4.4 3-7.7-.3-12-2.5-3.3-8.3-4.2-12-2.6-4.6 2.2-5.3 9-4.6 13.6l1 1z"/>
    <path fill="#fdc274" d="M283.4 95c2.7-.2 2.3 2 3.8 3.4 1.4 1.3 3 .8 4 2.8 1 1.8-.3 4 .3 5.5.6 1.8 2.6 1.7 3.2 4 .5 1.8-1 2.7-.3 4.5 1 2.2 2.6.8 1.7 4.2 0 .5-1.6 1-2 1.7-.2 1 1.2 1.6.8 2.5-.4 1-2.5 3.3-3.3 4-.3.3.6 1 .7 1.3-5.3 1.2-3.3-6.8-3.2-9.5.4-5-1.6-9.5-2.4-14.2-.5-3-2.6-7-3-9v-1z"/>
    <path fill="#f7dba7" d="M277 95.2c0 1.6-1 4-.5 5.4 1 2.4 2 1.2 3.8 2 .7 0 2-.7 2.5 0 1 1-.5 1.6-.4 2 .2.3-.3 1 0 2 .3.8 1.7.7 2 1.4 1.2 2-.3 2-.4 4 0 1.8 1.3 3 1.4 4.6.6 4-4.5 4.2-3.2 7.8.4 1 1.8.5 2.2 1.5.3 1-.6 1.3-.5 2.2 0 1.7-1 4 2 3.4-1-3 1.7-2 3-3 1-1.2 1-2.4 2-3.4 1.2-1.2 4-.8 3-3.3-.7-2.3-4-.5-2-3.3 1-1.2 4-.2 3-3-1-1.5-3.8 0-3.4-2.6.2-2 3.8-1 1.4-3.8-1.3-1-4.3 0-4.3-2.4 0-2 3.3-2 2.5-4.5-.7-2-3.4-1.4-4.4-2.4-2.5-2.5-1-6.3-6.2-6.4-1.2 0-2.8.2-3.8.7v.8z"/>
    <path fill="#fdc274" d="M270.2 95c-2.8-.2-2.4 2-3.8 3.4-1.4 1.3-3 .8-4 2.8-1 1.8.3 4-.2 5.5-.7 1.8-2.6 1.7-3.2 4-.6 1.8 1 2.7.2 4.5-1 2.2-2.5.8-1.7 4.2.3.5 1.7 1 2 1.7.3 1-1 1.6-.6 2.5.3 1 2.3 3.3 3.2 4 .3.3-.6 1-.7 1.3 5.3 1.2 3.3-6.8 3-9.5 0-5 1.8-9.5 2.6-14.2.7-3 3-7 3.3-9v-1z"/>
    <path fill="#f7dba7" d="M277 95.2c0 1.6.3 3.7-.3 5-1 2.6-1.6 1.7-3.4 2.3-.8.3-2-.5-2.6.2-1 1 .5 1.6.4 2 0 .3.4 1 0 2-.2.8-1.6.7-2 1.4-1 2.2.4 2 .5 4 0 1.8-1 3-1.4 4.6-.4 4.2 4.7 4.3 3.3 7.8-.3 1-1.8.6-2.2 1.6 0 1 .8 1.4.7 2.3 0 1.6.8 4-2.2 3.4 1-3-1.7-2-3-3.2-1-1-1-2.3-2-3.2-1.2-1.3-4-.8-3-3.3.7-2.2 4-.5 2-3.2-1-1.2-4-.3-3-3 1-1.6 3.8 0 3.4-2.7-.3-2-4-1-1.4-3.7 1.2-1 4.2 0 4.2-2.5 0-2-3.3-2-2.5-4.5.6-2 3.4-1.4 4.4-2.3 2.5-2.4 1-6.2 6.2-6.3 1 0 2.8 0 3.8.6v1z"/>
    <path fill="#fdc274" d="M275.2 97.3c-1 0-3-.2-3.7 0-2.4 1.2-.8 1.8-1.8 2.8-.8 1-3.2 2.7-3.5 4-.6 2.6 2.3 2.5.2 5.6-1.3 1.8-4.7 2-3.8 5.3.4 1.2 2.4 1 2.6 2 .6 1.8-.7 2-.8 3.6-.2 2.7 1 5.4 4.4 2.7-3.6.7-2.4-1.6-2.2-3.6 0-1 1-1.7.8-2.8-.2-1.3-1.6-1.5-1.8-2.2-1-3.2-.3-1.5 1.5-4.6 1.4-2.4 0-3.3.5-5.3.3-1 2.4-4.5 3-5 1-.7 3.8-.8 4.6-2.8h.2zM278.3 97.3c1 0 3-.2 3.8 0 2.4 1.2 1 1.8 2 2.8.7 1 3 2.7 3.4 4 .5 2.6-2.2 2.5-.2 5.6 1.2 1.8 4.7 2 3.7 5.3-.5 1.2-2.4 1-2.7 2-.5 1.8.8 2 1 3.6 0 2.7-1.2 5.4-4.5 2.7 3.5.7 2.2-1.6 2.2-3.6 0-1-1.2-1.7-1-2.8.4-1.3 1.7-1.5 2-2.2 1-3.2 0-1.5-1.6-4.6-1.3-2.4 0-3.3-.4-5.3-.3-1-2.4-4.5-2.8-5-1-.7-4-.8-4.8-2.8z"/>
    <path fill="#231f20" d="M251.2 160h31l-4-19.4H247l4.2 19.6z"/>
    <path fill="#535353" d="M282.8 160.2h-.7l-3.7-19.6.6.3 3.8 19.3zM254 148h19l-.4-1.8h-19l.3 2z"/>
</g>
<g>
    <g transform="matrix(0.55000001,0,0,0.54866789,136.36799,125.52953) matrix(-1.7379299,0,0,-1.7379263,1031.0951,569.76036)" clip-path="url(#v)">
        <path fill="#e6e6e6" d="M357.5 332.4H277V433h80.5V332.4z"/>
    </g>
    <path fill="#fff" d="M363 119.8h77.3v-96H363v96z"/>
    <path fill="#b6e9f2" d="M366.8 116h69.5V27.7h-69.5v88z"/>
    <path fill="#9bd2db" d="M413.6 116h22.7V36.3h-22.7V116zm-18.7 0h18.6V78H395V116z"/>
    <path fill="#9bd2db" d="M400 74.5h9.4v3.7H400v-3.8zm-33-22.2l19.7 7v56.5H367V52.2z"/>
    <path fill="#9bd2db" d="M376.8 41.2h2v20.4h-2V41.2z"/>
    <path fill="#9bd2db" d="M372.5 54.2h9v5h-9v-5z"/>
    <g transform="matrix(0.55000001,0,0,0.54866789,136.36799,125.52953) matrix(-1.7379299,0,0,-1.7379263,1031.0951,569.76036)" clip-path="url(#w)" opacity=".3">
        <path fill="#fff" d="M352 430.4v-3.2L279.7 338v14l62.4 78.4h10z"/>
    </g>
    <g transform="matrix(0.55000001,0,0,0.54866789,136.36799,125.52953) matrix(-1.7379299,0,0,-1.7379263,1031.0951,569.76036)" clip-path="url(#x)" opacity=".3">
        <path fill="#fff" d="M333 430.4l-53.5-67v26l32.6 41h21z"/>
    </g>
    <g transform="matrix(0.55000001,0,0,0.54866789,136.36799,125.52953) matrix(-1.7379299,0,0,-1.7379263,1031.0951,569.76036)" clip-path="url(#y)" opacity=".3">
        <path fill="#fff" d="M352 418.3v-5.8L291.5 338h-4.7l65.4 80.3z"/>
    </g>
    <path fill="#8f8c88" d="M435 68.5h-.8V27.3h.8v41.2zm-65.2 0h-.8V27.3h.8v41.2z"/>
    <path fill="#b0aca8" d="M364.8 30h74.4v-4.2h-74.4v4z"/>
    <path fill="#ccc" d="M364.8 33h74.4v-1.5h-74.4V33zm0 2.8h74.4v-1.3h-74.4v1.3zm0 3h74.4v-1.3h-74.4v1.2zm0 3h74.4v-1.5h-74.4v1.5zm0 2.7h74.4v-1.2h-74.4v1.3zm0 3h74.4v-1.3h-74.4v1.3zm0 3h74.4V49h-74.4v1.3zm0 3h74.4V52h-74.4v1.4zm0 2.8h74.4V55h-74.4v1.3zm0 3h74.4V58h-74.4v1.3zm0 3h74.4V61h-74.4v1.3zm0 3h74.4v-1.5h-74.4v1.4zm0 2h74.4v-1.4h-74.4V67zm0 2h74.4V68h-74.4v1.3z"/>
</g>
<g>
    <g transform="matrix(0.55000001,0,0,0.54866789,136.36799,125.52953) matrix(-1.7379299,0,0,-1.7379263,572.73871,569.76036)" clip-path="url(#z)">
        <path fill="#e6e6e6" d="M357.5 332.4H277V433h80.5V332.4z"/>
    </g>
    <path fill="#fff" d="M111 119.8h77.2v-96H111v96z"/>
    <path fill="#b6e9f2" d="M114.8 116h69.4V27.7h-69.4v88z"/>
    <path fill="#9bd2db" d="M161.4 116h22.8V36.3h-22.8V116zm-18.5 0h18.4V78H143V116z"/>
    <path fill="#9bd2db" d="M147.8 74.5h9.5v3.7H148v-3.8zm-33-22.2l19.8 7v56.5h-19.8V52.2z"/>
    <path fill="#9bd2db" d="M124.7 41.2h2v20.4h-2V41.2z"/>
    <path fill="#9bd2db" d="M120.4 54.2h9v5h-8.8v-5z"/>
    <g transform="matrix(0.55000001,0,0,0.54866789,136.36799,125.52953) matrix(-1.7379299,0,0,-1.7379263,572.73871,569.76036)" clip-path="url(#A)" opacity=".3">
        <path fill="#fff" d="M352 430.4v-3.2L279.7 338v14l62.4 78.4h10z"/>
    </g>
    <g transform="matrix(0.55000001,0,0,0.54866789,136.36799,125.52953) matrix(-1.7379299,0,0,-1.7379263,572.73871,569.76036)" clip-path="url(#B)" opacity=".3">
        <path fill="#fff" d="M333 430.4l-53.5-67v26l32.6 41h21z"/>
    </g>
    <g transform="matrix(0.55000001,0,0,0.54866789,136.36799,125.52953) matrix(-1.7379299,0,0,-1.7379263,572.73871,569.76036)" clip-path="url(#C)" opacity=".3">
        <path fill="#fff" d="M352 418.3v-5.8L291.5 338h-4.7l65.4 80.3z"/>
    </g>
    <path fill="#8f8c88" d="M182.8 68.5h-.8V27.3h.8v41.2zm-65 0h-.8V27.3h.7v41.2z"/>
    <path fill="#b0aca8" d="M112.7 30H187v-4.2h-74.3v4z"/>
    <path fill="#ccc" d="M112.7 33H187v-1.5h-74.3V33zm0 2.8H187v-1.3h-74.3v1.3zm0 3H187v-1.3h-74.3v1.2zm0 3H187v-1.5h-74.3v1.5zm0 2.7H187v-1.2h-74.3v1.3zm0 3H187v-1.3h-74.3v1.3zm0 3H187V49h-74.3v1.3zm0 3H187V52h-74.3v1.4zm0 2.8H187V55h-74.3v1.3zm0 3H187V58h-74.3v1.3zm0 3H187V61h-74.3v1.3zm0 3H187v-1.5h-74.3v1.4zm0 2H187v-1.4h-74.3V67zm0 2H187V68h-74.3v1.3z"/>
</g>
<g>
    <path fill="#9ba4ab" d="M426.5 235.6h3.2V190h-3.2v45.6zM394.6 235.6h3.2V190h-3.2v45.6z"/>
    <path fill="#303030" d="M428.8 194H395c-1.5 0-3-1.3-3-3v-2.5c0-1.6 1.4-3 3-3H429c1.7 0 3 1.4 3 3v2.5c0 1.7-1.3 3-3 3"/>
    <path fill="#303030" d="M436.3 129.2c-1.3-.2-2.6.8-2.7 2.2L427 187c-.2 1.2.8 2.5 2.2 2.7 1.4 0 2.7-1 2.8-2.2l6.6-55.4c.2-1.4-.8-2.7-2.3-2.8"/>
    <path fill="#191919" d="M377.8 222c1 1.3 1.6 3.7 1.7 4.8 0 1.3-.7 4-1.7 4-2.5 0-5.5.3-8 .7-2.7.3-3.7 1.8-10.4 1.8-2 0-5.5 0-5.3-1 .2-.7 6.4-2.2 8.5-4 5.2-4.8 8.6-6 8.6-6s6.7-.4 7-.2"/>
    <path fill="#191919" d="M371.4 232.2h6.7V231h-6.6v1.2z"/>
    <path fill="#00233f" d="M401.5 169.3s-25.2 8.2-26.2 9.3c-1 1.2-8 45.5-8 45.5s1.7 1.8 6.2 2.2c4.6.3 6 0 6 0s7-28.6 6.8-32.3c-.2-4 1.3-9.5 1.3-9.5s29.2-1.4 31.2-3.2c11.4-9.8-1-15.4-1-15.4l-16.4 1v2.3z"/>
    <path fill="#ffa47c" d="M401 124.2c3.8 1 4 4.6 2.8 8.4-1.3 3.7-10.7 21.6-13.2 22.3-1.2.3-6-.7-6-2.6 0-1.8 6.7-18.5 8.2-21.4 1.7-3 3.3-8 8-6.8"/>
    <path fill="#ffbd95" d="M411 104.7s2.3 11.5 3 12c2.5 1.4 10.4 1.7 12.3 4.4 2.4 3.5-4.4 21.7-4.7 27.4-.4 5.7 4.6 17 6.3 22.2 1.7 5.3-15.2 11.3-15.8 11.4-.6.2-8.3-4-9.6-5.6-1.3-1.6-1.2-15.6-1.8-19.2-.5-3.4-3.5-15.6-3.7-16.4-2-5.2-1.3-9.7-1.3-11 0-1-.3-3 .2-3.7.7-1.6 6.8-4.5 6.8-5.3l-.8-11 8.8-5z"/>
    <path fill="#b8d1ff" d="M401.2 124.4c-3.3-1.2-6.2 0-8.6 6-2.6 6-7.7 15.3-7.7 15.3l9.6 5.8s9.2-14.2 10-19.2c.4-4-.4-6.8-3.4-8"/>
    <path fill="#191919" d="M386.3 237.5h6.7V236h-6.7v1.4z"/>
    <path fill="#191919" d="M392.7 227c1 1.2 1.5 3.8 1.6 5 0 1.2-.7 4-1.6 4-2.5 0-5.5 0-8 .6-2.8.4-3.7 2-10.4 2-2 0-5.5-.3-5.4-1 0-1 6.3-2.4 8.3-4.4 5.2-5 8.7-6.2 8.7-6.2s6.6-.4 6.8 0"/>
    <path fill="#cee0ff" d="M414 116.8l-9.8 8.3-1.4-4.4s-6.3 4-7 5.5c-.5 1.7-.5 5-.5 6-.2 1.2.6 6.7 1.8 11.3.8 2.7 1.3 6.3 2.5 11 1 3.8 1 14 1 14s5 .6 11-.7c6.8-1.4 15.5-2.2 15.8-2.4 1-1.3-4.4-14.3-4.4-15.5 0-1.2 5-23 4.7-25.5-.3-2.8-1.4-4.3-3.6-5l-9.8-2.5"/>
    <path fill="#002d56" d="M427.2 165.2s1.5 5.8.8 10.5c-.6 4.8-3 10.5-14.3 11.6l-18.4 1.6c-.4 0 .8 9.5.3 16l-1.2 24.5s-2.4.7-6.8.8c-4.4 0-6-1.5-6-1.5s-3-41.7-2-45.2c2-6 21-10.8 21-11.8-.2-1 0-4.5 0-4.5l26.7-2z"/>
    <path fill="#ffbd95" d="M424.2 120.3c3.8-1.6 5.2 2.8 6.6 6.5 1.5 3.7 4.7 23.2 4 24.4-.6 1-6.8.8-8-.6-1.4-1.4-5-18.7-5.6-22-.5-3.2-1.4-6.3 3-8.3"/>
    <path fill="#b8d1ff" d="M427.2 165.2c.4-.6-16.7-.2-17.4-2.6-1-3.6 15.8-2.3 13.2-12.2-.7-2.8-6-2.2-8-3-2.3-1-7.7-.4-12.5-1.4-4.8-1-6.4-7.4-6.5-7.7l1 5c1 2.7 1.4 6.3 2.6 11 .8 3.2 1 10.6 1 13l17-.7c5-.8 9.4-1 9.7-1.4"/>
    <path fill="#ffbd95" d="M435 150.4c1 4.3-7.7 6-12 6.6-4.4.6-18.3 1-18.3 1l-1-2.8s23.4-7.5 24.6-7.7c1.2-.2 5.5-1.4 6.6 3"/>
    <path fill="#ffa47c" d="M410.2 107l-7.7 8.2v1.5h8.4l2.3-2.2-2-8-1 .6z"/>
    <path fill="#ffbd95" d="M397 95c2.3-2.8 9.7-6.3 14.4-1.7 4.6 4.6 3.7 10 2.2 13.7-1.3 2.8-2.7 4.4-5.5 6.3-.5.4-6 2.4-7.3 2.2-.8-.2-2.4-6-2.6-6-.2 0-.8-.2-1-.6 0-.8 0-5.2-.3-5.6-.2-.4-2.3-5 .3-8.4"/>
    <path fill="#8d3b26" d="M395.8 98s4-3.3 10.2 1c1.4 1 0 6 .3 6.2.3.4 3.8-4 3.6-3.5-.8 5.7 1.4 8.4 2 8.2 1.3 0 6-8.8 2.8-14.5-3.2-6-11-6.3-12.5-5.7-1.4.5-10.7 1.2-6.6 8.2"/>
    <path fill="#ffbd95" d="M407.5 103.3c0 1.8 0 4.2 1 4.3.8 0 1.8-1.2 2-3 .3-1.8-.2-3.3-1.2-3.5-1 0-1.5.5-1.7 2.3M405 155.3s-5-1.7-5.2-2c-.3-.2-9.2 3.2-8.8 3.6.4.2 1.6.5 3 0 1.3-.4 6.7 2.4 9.2 2 2.5-.7 1.6-3.7 1.6-3.7"/>
    <path fill="#ffa47c" d="M391.3 154c-.3 4.3-9.4 3-13.8 2-4.4-.8-16.8-5-16.8-5l.5-3.7s23.4 1.3 24.8 1.5c1 .2 5.6.5 5.3 5"/>
    <path fill="#ffa47c" d="M361.5 147.5l-5.5-1.7s-2.7 2-3 2.6c-.4.6-.8 3.6-1 4 0 .6.2 1.2.4 1.2s.8-1.7 2.8-1.7c2-.2 3.5 0 4.6-.5 2.6-1 1.7-4 1.7-4"/>
    <path fill="#90a4a2" d="M358 143l.5-.8c0-.2.3-.3.5-.2.2 0 .3.4.2.5l-.4 1c0 .2-.4.2-.6 0-.2 0-.3-.2-.2-.4"/>
    <path fill="#4b5b60" d="M351.7 157c-.4 0 .2-2 .3-2.3l5.7-11.5c.2-.4.5-.6 1-.3.4 0 .5.4.4 1l-5.5 11.4c-.2.3-1.3 1.8-1.7 1.6"/>
    <path fill="#90a4a2" d="M358.3 145.2l-1.4-.7.2-.7 1.5.7-.4.7z"/>
    <path fill="#c9dad8" d="M356 148v-.2l2-3.8s0-.2.2 0v.2l-1.7 3.8s-.2.2-.4 0"/>
    <path fill="#ffa47c" d="M358.7 148s-3 .5-3 1l-2 3.5c0 .4-.3.7.8.6 1-.3 1.6-1.6 2-1.6.5 0 1.6 1 3 .6 1.4-.5 2.2-1.7 2.2-2 0-.6-2-2.5-3-2"/>
    <path fill="#cee0ff" d="M422.4 119c-3 1.3-4.4 4-2.3 10.2 2.3 6 4.7 16.5 4.7 16.5l11-2.3s-3-16.7-5.7-21c-2.2-3-4.7-4.6-7.6-3.5"/>
</g>
<path fill="#191919" d="M161.8 223c-1 1.2-1.5 3.5-1.6 4.6 0 1.4.7 4.2 1.6 4.2 2.5 0 5.5 0 8 .4 2.6.4 3.5 2 10 2 2 0 5.6-.3 5.5-1 0-.8-6.4-2.2-8.4-4-5-5-8.5-6-8.5-6s-6.6-.6-6.7-.3"/>
<path fill="#191919" d="M168 233h-6.5V232h6.6v1.2zM138.4 170.8s25 8 26 9.3c1 1.2 8 45 8 45s-1.8 1.6-6.3 2c-4.4.3-6 0-6 0s-6.8-28.2-6.6-31.8c.2-4-1.2-9.4-1.2-9.4s-29-1.5-31-3.2c-11.2-9.7 1.2-15.3 1.2-15.3l16.2 1.3-.2 2.2z"/>
<path fill="#ffbd95" d="M129 107s-2.5 11-3 11.8c-1.7 2.2-7 3.3-9 6-2.4 3.4 1.2 19.8 1.5 25.3.4 5.8-2.8 17-4.5 22.3-1.7 5.2 13.3 11 14 11.2.4 0 8-4 9.4-5.5 1.3-1.8 1.2-15.7 1.7-19 .7-3.7 3.6-15.7 4-16.6 1.8-4.8 1-9.3 1-10.5 0-1 .5-3 0-4-1-1.6-7-4.5-7-5.2l1-11-9-4.8z"/>
<path fill="#191919" d="M153.4 238.2h-6.6V237h6.6v1.2z"/>
<path fill="#191919" d="M147 227.7c-.8 1.3-1.4 3.8-1.4 5-.2 1.3.6 4.2 1.5 4.2 2.6 0 5.6 0 8.2.3 2.6.3 3.5 2 10 2 2 0 5.6-.3 5.4-1 0-1-6.3-2.4-8.3-4.3-5-5-8.4-6-8.4-6s-6.7-.6-7-.3"/>
<path fill="#cee0ff" d="M126 118.8l9.7 8.4 1.4-4.4s6.2 2 6.8 3.6c.6 1.5.7 6.4.8 7.6 0 1.2-.6 6.6-2 11-.6 2.8-1 6.3-2.2 11-1 3.7-1.8 12.6-1.8 12.6s-4.2 1.8-10 .5c-6.6-1.3-13.8-1.7-14-2-1-1.2 2.6-10 2.7-15.6 0-1-1.8-22-1.5-24.7.2-2.7 2-4.2 4-5 2.3-.6 6-3 6-3"/>
<path fill="#b5ccf9" d="M130.2 136.5c-3.2-11-9.2-14.4-9.2-14.4l-1-.3v.2c-2.3.5-4 2-4.2 4.7-.3 2.6 1.5 23.6 1.5 24.7 0 5.6-3.8 14.5-2.7 15.7.2.4 6 .7 12 1.8l10.8.2 1.2-.3s.8-9 1.8-12.8c.7-2.6 1-4.8 1.5-6.7v-.2s-8.7-1.4-11.7-12.5"/>
<path fill="#303030" d="M114.6 167s-1.8 5.8-1 10.5c.4 4.7 1.7 10 12.8 11l18.2 1.6c.3.2-.8 9.7-.4 16.2.5 6.6 1.2 24.2 1.2 24.2s2.4.6 6.8.7c4.4.2 5.8-1.3 5.8-1.3s3-41.3 2-44.7c-2-6-20.3-10.6-21-11.6-.6-1-.5-4.8-.5-4.8l-24-1.5z"/>
<path fill="#cee0ff" d="M120.6 122.6c-4 .4-4.8 4-4 8 .8 4 9 24.2 10 24.8 1.2.7 7.7-.6 8-2.5.3-2-6-19-7-22.4-1.2-3.3-2.3-8.6-7-8"/>
<path fill="#ffa47c" d="M130 109.3l7.6 8-.2 1.5h-8.2l-2.5-2 2-8 1.2.5z"/>
<path fill="#ffbd95" d="M143 97.4c-2.3-3-9.8-6.3-14.3-1.7-4.6 4.5-3.8 10-2.2 13.5 1.2 2.7 2.6 4.4 5.5 6.2.5.4 6 2.3 7.2 2 1 0 2.3-5.7 2.6-5.6.2 0 .8-.3 1-.8 0-.7 0-5 .3-5.3.3-.6 2.4-5 0-8.4"/>
<path fill="#8d3b26" d="M144 100.3s-4-3.3-10 1c-1.4 1 0 5.8-.3 6.2-.4.4-3.7-4-3.7-3.5.8 5.6-1.3 8.3-1.8 8.3-1.4-.2-4.7-8.4-1.6-14 3.2-6 9.6-5.5 11-5 1.5.6 6 1.7 6.5 7"/>
<path fill="#ffbd95" d="M132.4 105.6c.2 1.7 0 4-.8 4.2-1 0-2-1.2-2.2-3-.2-1.8.4-3.4 1.3-3.5 1-.2 1.5.4 1.7 2.2"/>
<path fill="#b8d1ff" d="M135.5 124.8l.2 2.4-2.3-2 2.2-.5zM135.7 127.2l.6-2.4.8 1.2-1.3 1.2z"/>
<path fill="#3b1b1d" d="M114.6 167l-.7 2.6 24.6 1.7v-2.7l-24-1.5z"/>
<path fill="#722c1d" d="M137 171.3h-.6c-.8 0-1.5-.6-1.5-1.4 0-1 .6-1.6 1.4-1.6h.8c.8 0 1.4.7 1.4 1.6 0 .8-.6 1.5-1.5 1.5"/>
<path fill="#303030" d="M134.3 126.3l3-.3-.2 2.8-1.6.3-1-2.6z"/>
<path fill="#303030" d="M135.5 129s1.4 7.8 1.4 13.6c-.2 6-2.8 23.4-2.8 23.4l2.6 4 1.8-4.3s1.3-17 .7-23.3c-.6-6.4-2.2-13.6-2.2-13.6l-1.6.3z"/>
<path fill="#e0f2ff" d="M124.8 119l2-2.2 8.7 8-1.4 2.7-9.2-8.6zM136.4 124.8l.8-3.3 1.3 1.6-1 4-1.2-2.2z"/>
<path fill="#cee0ff" d="M127 153.7c-.7 4.4 8.5 4.6 13 4.4 4.5 0 17.4-1.7 17.4-1.7v-4.8l-24.3-1.8c-1.3 0-5.7-.4-6 4"/>
<path fill="#ffa47c" d="M167.4 155.7c0-.3-.3-.7-.7-.7h-3.2c-.3 0-.7.3-.7.7 0 .3.2.7.7.7h3c.6 0 1-.3 1-.7M167.6 154.4c0-.4-.4-.8-.8-.8h-3.2c-.3 0-.7.3-.7.7 0 .4.2.7.6.7h3.2c.4 0 .8-.2.8-.6"/>
<path fill="#ffa47c" d="M167.6 153c0-.4-.3-.7-.7-.7h-3.2c-.5 0-.8.2-.8.7 0 .3.3.7.7.7h3.2c.3 0 .6-.2.6-.7"/>
<path fill="#ffa47c" d="M167.6 151.7c0-.4-.3-.7-.8-.7h-3c-.5 0-1 .2-1 .6 0 .4.5.8.8.8h3.2c.4 0 .8-.3.8-.8"/>
<path fill="#ffa47c" d="M156.4 152.4s4.8-2 5.8-2c1-.2 5 .6 5 .6s-1.2 1.4-1 2.2c0 1 .4 3.3.4 3.3s-3.3.8-5 .7c-1.6 0-3-.7-3-.7l-2.2-4z"/>
<path fill="#cee0ff" d="M158.6 157h-4.4v-6h4.4v6z"/>
<path fill="#99a2a9" d="M127.3 232h-6v-42.4h6V232zM106.8 190h3.3v-11.8H107V190z"/>
<path fill="#603813" d="M110 193.7h33c1.6 0 3-1.4 3-3V188c0-1.7-1.3-3-3-3h-33c-1.8 0-3.2 1.3-3.2 3v2.4c0 1.6 1.4 3 3 3M101.4 130l1-.2c1.4-.2 2.7.8 3 2.3l5.4 47c.2 1.3-.8 2.7-2.2 2.8h-1c-1.5.2-2.7-.8-3-2.2l-5.5-47c0-1.4 1-2.7 2.4-2.8"/>
<path fill="#874e1a" d="M103 131.2c.6 0 1.2.4 1.2 1l5.5 46.2c0 .6-.3 1-1 1-.4 0-1-.2-1-.8l-5.6-46.3c0-.5.5-1 1-1"/>
<path fill="#303030" d="M136.2 236.8c0 2 1.7 3.5 3.5 3.5 2 0 3.5-1.6 3.5-3.4 0-2-1.7-3.7-3.5-3.7-2 0-3.5 1.7-3.5 3.6M104.7 236.8c0 2 1.6 3.5 3.5 3.5 2 0 3.5-1.6 3.5-3.4 0-2-1.5-3.7-3.4-3.7-2 0-3.5 1.7-3.5 3.6"/>
<path fill="#99a2a9" d="M103.6 234.7H145c0-1.5-1.2-2.8-3-2.8h-35.4c-1.7 0-3 1.2-3 2.8"/>
<g>
    <g clip-path="url(#D)" transform="matrix(0.55000001,0,0,0.54866789,136.36799,125.52953) matrix(3.7289541,0,0,-3.7289541,-1020.4767,375.99615)">
        <path fill="#99a2a9" d="M267.6 49h-.8v18.7h.8V49z"/>
    </g>
</g>
<path fill="#a8714c" d="M141.2 163.8h257.4v-6.2H141.3v6.2z"/>
<path fill="#895938" d="M151.8 232.3h5v-68.6h-5v68.6zM383 232.3h5.2v-68.6H383v68.6z"/>
<path fill="#a8714c" d="M151.8 242h5v-63l-5.2 5zM382.8 243l4.5.2 1-64-5.3 4.7z"/>
<g>
    <path fill="#cc4617" d="M347 156l-2.7-18 .7-.2 2.8 18.2h-.7z"/>
    <path fill="#cec6b7" d="M347.3 155l-1.2-20.6h1.5l1 20.5h-1.2z"/>
    <path fill="#226ea0" d="M348 156h-.8l2.5-16h.6l-2.3 16z"/>
    <path fill="#cec6b7" d="M345.8 153.4l-.8-11h1.4l.7 11H346z"/>
    <path fill="#486d99" d="M344.3 139.8l-.4-2.2c0-.2-.4-.2-.8 0-.4 0-.7 0-.7.2l.3 2.2 1.5-.3z"/>
    <path fill="#c17c02" d="M342.5 139l1.8-.4 2 11-2 .2-1.8-11z"/>
    <path fill="#a4a3a1" d="M342.5 139l1.8-.5.3 1.8-1.8.3-.3-1.7z"/>
    <path fill="#d3d3d3" d="M342.7 140.2l1.8-.4v.2l-1.8.3zM342.6 139.2l1.7-.2-1.7.4v-.2zM342.6 139.8l1.8-.4-1.7.4z"/>
    <path fill="#de6a5b" d="M350.8 143l.2-1.6h.6c.3 0 .5.2.5.3l-.2 1.6-1-.2z"/>
    <path fill="#ead2a7" d="M352 142.5l-1.2-.2-1.5 8 1.3.2 1.5-8z"/>
    <path fill="#a4a3a1" d="M352 142.4l-1.2-.2-.3 1.3 1.4.2v-1.3z"/>
    <path fill="#d3d3d3" d="M352 143.4l-1.4-.2 1.3.3zM352 142.8l-1.3-.3 1.3.4v-.2zM352 143h-1.4 1.4z"/>
    <path fill="#eaefef" d="M351 157.6h-6.6l-.7-10.7h7.7l-.5 10.6z"/>
</g>
<!-- clock -->
<!-- <g>
    <path fill="#fff" d="M287.6 26c0 7-5.6 12.6-12.6 12.6S262.3 33 262.3 26 268 13.4 275 13.4c7 0 12.6 5.6 12.6 12.6"/>
    <path fill="#1b5e92" d="M275 14c-6.6 0-12 5.4-12 12 0 6.7 5.4 12 12 12 6.7 0 12-5.3 12-12 0-6.6-5.3-12-12-12m0 25.6c-7.5 0-13.6-6-13.6-13.6 0-7.5 6-13.6 13.6-13.6 7.4 0 13.6 6 13.6 13.5s-6 13.5-13.6 13.5"/>
    <path fill="#ed4214" d="M275.8 15.2c0 .6-.4 1-.8 1-.5 0-1-.5-1-1 0-.3.5-.7 1-.7.4 0 .8.4.8 1M275.8 36.8c0 .4-.4.7-.8.7-.5 0-1-.3-1-.7 0-.5.5-1 1-1 .4 0 .8.5.8 1M285.7 26.8c-.4 0-.8-.4-.8-.8s.4-.8.8-.8.8.4.8.8-.4.8-.8.8M264.2 26.8c-.5 0-.8-.4-.8-.8s.3-.8.8-.8.8.4.8.8-.4.8-1 .8"/>
    <path fill="#8fc3d8" d="M270 16.5c.2.2 0 .5 0 .7-.4.2-.7 0-1-.2 0-.3 0-.5.3-.8.3 0 .6 0 .8.3M281 35c0 .3 0 .7-.4.8-.2 0-.5 0-.7-.2-.4-.2-.2-.5 0-.7.3-.3.6-.2.8 0M266 20.2c.2 0 .3.5.2.8-.2.2-.6.3-.8 0-.3 0-.4-.4-.2-.7 0-.2.5-.3.7-.2M284.6 31c.3 0 .3.4.2.7-.2.2-.6.3-.8 0-.3 0-.3-.4-.2-.7.2-.3.6-.4.8-.2M284.6 21c-.3.3-.7.2-.8 0 0-.3 0-.7.2-1 .3 0 .7 0 .8.3.2.3 0 .7-.2.8M266 32c-.3 0-.6 0-.8-.3-.2-.4 0-.7.2-1 .3 0 .5 0 .8.3 0 .3 0 .6-.3.8M281 17c-.3.3-.7.4-1 .2-.2 0-.3-.5 0-.7 0-.3.3-.4.6-.3.3.2.4.6.2.8M270 35.5c0 .4-.4.4-.7.3-.3 0-.3-.6-.2-.8.2-.3.6-.3 1-.2 0 0 .2.6 0 .8"/>
    <path fill="#ed4214" d="M275.4 25.6h-.8v-9h.8v9z"/>
    <path fill="#8fc3d8" d="M274.7 27l1-.7 2.6 4-1 .7-2.5-4z"/>
    <path fill="#1b5e92" d="M275 26.5c-.2 0-.4 0-.4-.3s.2-.5.4-.5c.3 0 .5.2.5.4 0 .3-.2.4-.4.4m0-1.4c-.5 0-1 .4-1 1s.5 1 1 1c.7 0 1.2-.5 1.2-1 0-.6-.5-1.2-1-1.2"/>
</g> -->
<g stroke-width="3" stroke-dashoffset="592.5" transform="matrix(0.55000001,0,0,0.54866789,-0.02580298,0.04000434)" class="employee-speaking" stroke-linecap="square">
    <path fill="#fff" d="M677.5 159c-15.8 0-28.6 10.5-28.6 23.4 0 13 12.6 23.5 28.4 23.5 8.3 0 16.2-3 21.7-8 2.6-1 6.7 0 16.5 10-3.7-8.4-8-12.8-12.3-15.3 2-3.2 3-6.8 3-10.4 0-13-13-23.5-28.8-23.5z"/>
    <circle cx="665.4" cy="186.2" r="2.2"/>
    <circle cx="677.6" cy="185.9" r="2.2"/>
    <circle cx="689.9" cy="185.6" r="2.2"/>
</g>
<g stroke-width="3" stroke-dashoffset="592.5" transform="matrix(0.55000001,0,0,0.54866789,-0.02580298,0.04000434)" class="employer-speaking" stroke-linecap="square">
    <path fill="#fff" d="M331.6 202c9.6-12.7 9-29.3-1.2-37.2-10.3-8-26.5-4-36 8.5-5.2 6.6-7.6 14.6-7 22-.7 2.6-4.2 5-18 7 9 2 15 1.3 19.6-.6 1.4 3.5 3.6 6.5 6.5 8.7 10.2 8 26.4 4 36-8.5z"/>
    <circle cx="-326.2" cy="189.2" r="2.2" transform="scale(-1,1)"/>
    <circle cx="-313.9" cy="188.9" r="2.2" transform="scale(-1,1)"/>
    <circle cx="-301.6" cy="188.7" r="2.2" transform="scale(-1,1)"/>
</g>
</svg>
